<svg t="1716622690932" class="icon" viewBox="0 0 1293 1024" version="1.1" xmlns="http://www.w3.org/2000/svg" p-id="4488" width="200" height="200"><path d="M1258.002 221.665L712.448 12.205a183.324 183.324 0 0 0-131.538 0L35.221 221.665c-46.962 18.08-46.962 84.468 0 102.547L580.776 533.7a183.324 183.324 0 0 0 131.539 0l429.13-164.787v269.112a26.135 26.135 0 0 0 26.135 26.109h27.16a26.135 26.135 0 0 0 26.135-26.109V338.411l37.128-14.199c47.07-18.052 47.07-84.468 0-102.547z" fill="#826AF9" p-id="4489"></path><path d="M715.358 673.698a178.232 178.232 0 0 1-128.44 0L362.074 587.02l-86.893-33.572v301.176c0 22.309 13.633 42.328 34.488 50.303l277.25 106.966a178.232 178.232 0 0 0 128.44 0L983.636 908.35a53.968 53.968 0 0 0 34.487-50.303V556.978l-77.786 30.042-224.952 86.678z" fill="#2222DA" p-id="4490"></path></svg>
