<svg viewBox="0 0 1024 1024" version="1.1" xmlns="http://www.w3.org/2000/svg">
  <path d="M485.973333 25.813333C442.709333 131.925333 416.597333 201.386667 368.426667 304.298667c29.568 31.317333 65.834667 67.797333 124.714666 108.970666-63.317333-26.026667-106.496-52.224-138.794666-79.36C292.693333 462.592 196.053333 645.888 0 998.186667c154.112-89.002667 273.578667-143.786667 384.853333-164.778667a282.026667 282.026667 0 0 1-7.253333-66.005333l0.128-4.949334c2.474667-98.730667 53.802667-174.677333 114.645333-169.472 60.8 5.12 108.117333 89.386667 105.728 188.117334a278.186667 278.186667 0 0 1-6.229333 53.034666c110.08 21.504 228.309333 76.245333 380.330667 164.010667-29.952-55.168-56.746667-104.917333-82.304-152.32-40.234667-31.146667-82.218667-71.765333-167.808-115.754667 58.88 15.317333 100.992 32.938667 133.802666 52.650667C596.053333 299.136 575.146667 234.837333 485.973333 25.813333zM976.981333" fill="#1793d1"></path>
</svg>
