<svg viewBox="0 0 1024 1024" xmlns="http://www.w3.org/2000/svg">
  <path d="M593.92 34.620952c-6.826667 0-13.653333 1.462857-19.504762 3.413334 12.678095 8.289524 19.504762 19.504762 23.405714 32.670476 0.487619 1.950476 0.975238 2.925714 0.975238 4.87619 0.487619 1.462857 0.487619 2.925714 0.48762 4.388572 0.975238 21.942857-5.851429 24.868571-10.24 37.546666-7.314286 16.579048-5.36381 34.620952 3.413333 49.249524 0.975238 1.950476 1.950476 3.900952 2.925714 5.36381-9.264762-62.902857 43.398095-72.655238 52.662857-92.16 0.975238-17.066667-13.653333-28.769524-24.868571-36.571429-10.727619-6.339048-20.48-8.777143-29.257143-8.777143z m79.481905 14.628572c-0.975238 5.851429-0.487619 4.388571-0.487619 7.314286-0.487619 1.950476-0.487619 4.388571-0.487619 6.339047-0.487619 1.950476-0.975238 3.900952-1.950477 5.851429-0.487619 1.950476-1.462857 3.900952-1.950476 5.851428l-2.925714 5.851429c-0.975238 0.975238-1.462857 1.950476-1.950476 2.925714l-1.462857 2.438095c-1.462857 1.950476-2.438095 3.413333-3.900953 4.876191-1.462857 1.462857-2.925714 3.413333-4.388571 4.388571v0.487619c-1.462857 1.462857-2.925714 2.925714-4.876191 3.900953-5.36381 3.900952-11.215238 6.826667-16.579047 10.727619-1.950476 1.462857-3.413333 2.438095-4.876191 3.900952-1.950476 1.462857-3.413333 2.438095-4.87619 3.900953-1.950476 1.462857-2.925714 2.925714-4.388572 4.87619-1.462857 1.462857-2.925714 3.413333-3.900952 4.87619-1.462857 1.950476-2.438095 3.413333-3.413333 5.36381l-2.925715 5.851429c-0.975238 1.950476-1.462857 3.900952-1.950476 5.851428-0.487619 1.950476-1.462857 3.900952-1.950476 6.339048-0.487619 0.975238-0.487619 2.438095-0.487619 3.413333-0.487619 0.975238-0.487619 1.950476-0.487619 2.925714 0 1.950476-0.487619 4.388571-0.487619 6.339048 0 1.462857 0 2.925714 0.487619 4.388571 0 1.950476 0.487619 3.900952 0.975238 6.339048l1.462857 5.851429c0.975238 1.950476 1.462857 3.900952 1.950476 5.851428 0.487619 1.462857 1.462857 2.438095 1.950477 3.413334l-57.539048-22.430477c-9.752381-2.925714-19.017143-5.36381-28.769524-7.314285L507.12381 156.038095c-15.11619-2.925714-30.232381-5.36381-45.348572-6.826666-0.487619 0-0.975238-0.487619-1.462857-0.487619-14.628571-1.462857-29.744762-2.438095-44.860952-2.438096-11.215238 0-21.942857 0.487619-32.670477 1.462857-15.11619 0.975238-30.232381 2.925714-45.83619 5.36381-3.900952 0.487619-7.314286 1.462857-11.215238 1.950476-7.801905 1.462857-15.11619 3.413333-22.430476 4.876191l-10.727619 3.413333c-3.900952 1.462857-7.314286 3.413333-10.727619 4.87619l-8.289524 3.900953c-0.487619 0.487619-0.975238 0.487619-1.462857 0.487619-2.438095 1.462857-4.87619 2.438095-6.826667 3.413333-0.975238 0.487619-1.462857 0.487619-1.950476 0.975238-2.925714 1.462857-5.36381 2.925714-7.801905 3.900953-1.950476 0.975238-3.413333 1.950476-4.876191 2.438095-0.975238 0.487619-1.950476 0.975238-2.438095 1.462857-2.438095 1.462857-4.388571 2.438095-6.339047 3.900952-2.438095 1.462857-4.388571 2.438095-5.851429 3.900953-1.950476 1.462857-3.413333 2.438095-4.87619 3.413333-0.487619 0.487619-0.487619 0.487619-0.975239 0.487619-1.462857 0.975238-3.413333 2.438095-4.87619 3.413334l-3.900952 2.925714c-0.487619 0.487619-0.975238 0.975238-1.462858 0.975238-1.462857 0.975238-2.438095 2.438095-3.900952 3.413333l-0.975238 0.975238-4.388571 4.388572c-0.487619 0-0.487619 0.487619-0.487619 0.487619l-4.388572 4.388571-0.487619 0.487619-3.900952 3.900953c-0.487619 0.487619-1.462857 0.975238-1.950477 1.462857l-4.388571 4.388571c-0.487619 0.487619-0.975238 0.975238-0.975238 1.462857l-5.851429 5.851429-0.975238 0.975238c-3.900952 4.388571-8.289524 8.289524-12.678095 12.190476-4.388571 3.900952-9.264762 7.801905-14.140952 11.215238-4.87619 3.413333-9.752381 6.339048-15.116191 9.264762-4.87619 2.925714-10.24 5.36381-15.603809 7.314286-5.36381 2.438095-10.727619 4.388571-16.091429 5.851429-10.24 2.438095-20.967619 6.339048-30.232381 7.314285-1.950476 0-4.388571 0.487619-6.339047 0.975238-2.438095 0.487619-4.388571 0.975238-6.339048 1.462857l-5.851429 2.438096-5.851428 2.925714c-1.950476 1.462857-3.900952 2.438095-5.36381 3.413333-1.950476 1.462857-3.413333 2.925714-4.87619 4.388572-1.950476 1.462857-3.413333 2.925714-4.876191 4.388571-1.462857 1.950476-2.925714 3.413333-4.388571 4.876191-1.462857 1.950476-2.925714 3.900952-3.900953 5.851428-1.462857 1.950476-2.438095 3.900952-3.413333 5.851429-0.975238 2.438095-1.950476 4.388571-2.925714 6.339047-0.975238 1.950476-1.462857 4.388571-2.438095 6.339048l-1.462858 5.851429c0 0.487619-0.487619 0.487619-0.487619 0.975238-0.487619 2.438095-0.487619 5.36381-0.975238 6.826666-0.487619 1.950476-0.487619 3.413333-0.487619 4.876191 0 0.975238 0 2.438095 0.487619 3.413333 0.487619 1.950476 0.487619 3.413333 0.975238 4.876191 0.487619 1.462857 0.975238 2.925714 1.950477 4.388571v0.487619l2.925714 4.388572c0.975238 1.462857 1.950476 2.925714 3.413333 4.388571 1.462857 1.462857 2.925714 2.925714 4.388572 3.900952 1.462857 1.462857 2.925714 2.925714 4.87619 3.900953 5.851429 5.36381 7.314286 6.826667 15.116191 11.215238 1.462857 0.975238 2.438095 1.462857 3.900952 1.950476 0.487619 0 0.487619 0.487619 0.975238 0.487619 0 0.487619 0 0.975238 0.487619 1.462857l1.462857 5.851429c0.487619 2.438095 1.462857 4.388571 1.950476 5.851428 0.975238 1.462857 1.462857 2.925714 1.950477 4.388572 0.487619 0.487619 0.487619 0.975238 0.975238 1.462857 0.975238 1.950476 1.950476 3.900952 2.925714 5.363809l3.900952 5.36381c1.462857 1.462857 2.925714 3.413333 4.388572 4.87619 1.462857 1.462857 2.925714 2.925714 4.87619 4.388572l0.487619 0.487619c1.462857 1.462857 2.925714 2.438095 4.388572 3.413333 1.950476 1.462857 3.413333 2.438095 5.363809 3.413334l5.851429 2.925714c1.462857 0.975238 3.413333 1.462857 4.87619 1.950476 0.487619 0.487619 0.487619 0.487619 0.975238 0.487619 0.975238 0.487619 2.438095 0.487619 3.413334 0.975238-0.975238 13.653333-0.975238 26.331429 0.975238 30.72 2.438095 4.87619 13.165714-10.24 24.380952-27.794285-1.462857 17.066667-2.438095 37.546667 0 43.398095 2.925714 6.339048 17.554286-13.165714 30.72-34.620953 177.005714-40.96 338.407619 81.432381 355.474286 254.049524-3.413333-26.819048-36.571429-41.935238-51.687619-38.034286-7.314286 18.529524-19.992381 41.935238-40.472381 57.051429 1.950476-16.579048 0.975238-33.645714-2.438095-49.737143-5.36381 22.918095-16.091429 44.373333-30.72 62.902857-23.893333 1.950476-47.299048-9.752381-59.977143-26.819047-0.975238-0.975238-1.462857-2.438095-1.950476-3.413334-0.975238-1.950476-1.462857-3.413333-1.950476-5.363809-0.487619-1.462857-1.462857-3.413333-1.462858-5.36381-0.487619-1.950476-0.487619-3.413333-0.487619-5.363809v-3.900953c0.487619-1.950476 0.975238-3.413333 1.462857-5.363809 0.487619-1.950476 0.975238-3.413333 1.950477-5.36381 0.975238-1.950476 1.950476-3.413333 2.925714-5.363809 4.388571-12.190476 4.388571-21.942857-3.413333-27.306667-1.462857-0.975238-2.925714-1.950476-4.876191-2.438095-0.975238-0.487619-2.438095-0.975238-3.413333-0.975238-0.975238-0.487619-1.462857-0.487619-1.950476-0.975238-1.950476-0.487619-3.413333-0.975238-5.36381-1.462857-1.462857-0.487619-3.413333-0.975238-5.363809-0.975238-1.950476-0.487619-3.900952-0.487619-5.36381-0.48762-1.462857 0-2.438095 0.487619-3.900952 0.48762-1.950476 0-3.900952 0.487619-5.36381 0.975238-1.950476 0.487619-3.413333 0.487619-5.363809 0.975238-1.950476 0.487619-3.413333 0.975238-5.36381 1.950476-1.950476 0.975238-3.413333 1.462857-4.87619 2.438095-1.462857 0.975238-2.925714 1.950476-4.876191 2.438095-58.026667 38.034286-23.405714 126.780952 16.091429 152.624762-15.11619 2.925714-30.232381 5.851429-34.620953 9.264762l-0.487619 0.487619c10.727619 6.339048 21.942857 12.190476 33.645715 16.579048 16.091429 5.36381 33.158095 9.752381 40.472381 12.190476v0.487619c20.48 4.388571 41.935238 5.851429 62.902857 4.388572 110.689524-7.801905 200.899048-91.672381 217.478095-202.849524 0.487619 2.438095 0.975238 4.388571 1.462857 6.339047 0.975238 4.388571 1.950476 9.264762 2.438095 14.140953v0.487619c0.487619 2.438095 0.975238 4.388571 0.975238 6.339047v0.975238c0.487619 2.438095 0.487619 4.388571 0.487619 6.339048 0.487619 2.925714 0.487619 5.36381 0.487619 8.289524v3.900952c0 1.462857 0.487619 2.925714 0.48762 3.900953 0 1.462857-0.487619 2.925714-0.48762 4.388571v3.413333c0 1.950476-0.487619 3.413333-0.487619 4.876191 0 0.975238 0 1.950476-0.487619 3.413333 0 1.950476-0.487619 3.413333-0.487619 5.36381-0.487619 0.975238-0.487619 1.462857-0.487619 2.438095-0.487619 1.950476-0.487619 3.900952-0.975238 5.851429 0 0.975238 0 1.462857-0.487619 2.438095-0.487619 2.438095-0.975238 4.87619-0.975238 7.314286v0.487619c-0.487619 2.438095-0.975238 4.87619-1.462857 6.826666v0.975238l-1.462857 6.826667c0 0.487619-0.487619 0.975238-0.487619 0.975238-0.487619 2.438095-0.975238 4.388571-1.950476 6.826667v0.975238c-0.975238 2.438095-1.462857 4.87619-1.950477 6.826667l-0.487619 0.487619-2.438095 7.314285-2.925714 7.314286-2.925715 7.314286-2.925714 7.314285h-0.487619c-0.975238 2.438095-1.950476 4.87619-3.413333 6.826667-0.487619 0.975238-0.487619 1.462857-0.975238 1.950476-0.487619 0.487619-0.487619 0.487619-0.487619 0.975238-16.091429 32.670476-39.984762 61.44-70.217143 83.870477l-5.851429 4.388571c-0.487619 0.487619-1.462857 0.975238-1.950476 1.462857-1.950476 1.462857-3.413333 2.438095-5.363809 3.900953l0.975238 1.462857h0.487619l10.24-1.462857h0.487619c6.339048-0.975238 13.165714-2.438095 19.504762-3.413334 1.950476-0.487619 3.900952-0.975238 5.363809-1.462857 1.462857-0.487619 2.438095-0.487619 3.413333-0.975238 1.950476-0.487619 3.413333-0.975238 5.36381-0.975238l4.388571-1.462857c24.868571-5.851429 49.249524-14.140952 72.167619-23.893334-39.497143 54.125714-92.647619 98.011429-155.062857 126.293334 28.769524-1.950476 57.539048-6.826667 84.845715-14.628572 100.449524-29.744762 185.295238-97.52381 236.007619-188.220952-10.24 57.539048-33.158095 112.64-67.291429 160.426667 24.380952-16.091429 46.32381-34.620952 66.80381-55.588572 56.07619-58.514286 92.647619-132.632381 104.838095-212.114286 8.289524 39.497143 10.727619 79.969524 7.314286 120.441905 179.931429-251.12381 15.11619-512-54.125715-580.266666-0.487619-0.487619-0.487619-0.975238-0.487619-1.462858l-0.487619 0.487619c0-0.487619 0-0.487619-0.487619-0.487619 0 2.925714-0.487619 5.851429-0.487619 8.777143-0.975238 5.851429-1.462857 11.215238-2.438095 16.579048-1.462857 5.36381-2.925714 11.215238-4.388572 16.579047l-5.851428 16.091429c-2.438095 5.36381-4.87619 10.24-7.314286 15.116191-2.925714 4.87619-5.851429 9.752381-8.777143 14.140952-3.413333 4.87619-6.826667 9.264762-10.24 13.653333-3.900952 4.388571-7.801905 8.289524-11.702857 12.678095-2.438095 1.950476-4.87619 4.388571-7.314286 6.339048-1.950476 1.950476-3.900952 3.413333-5.851428 4.876191-4.388571 3.413333-8.777143 6.826667-14.140953 9.752381-4.87619 2.925714-9.752381 5.851429-14.628571 8.289523-5.36381 2.438095-10.24 4.87619-15.603809 6.826667-5.36381 1.950476-10.727619 3.900952-16.091429 5.36381-5.36381 1.462857-11.215238 2.925714-16.579048 3.900952-5.851429 0.975238-11.702857 1.462857-17.066666 1.950476-3.900952 0.487619-7.801905 0.487619-12.190477 0.487619-5.851429 0-11.702857-0.487619-17.066666-0.975238-5.851429-0.487619-11.702857-1.462857-17.066667-2.438095-5.851429-0.975238-11.215238-2.438095-16.579047-4.388572h-0.48762c5.36381-0.487619 11.215238-0.975238 16.579048-1.950476 5.851429-0.975238 11.215238-2.438095 16.579048-3.900952 5.36381-1.462857 10.727619-3.413333 16.091428-5.36381 5.36381-1.950476 10.727619-4.388571 15.60381-6.826666 5.36381-2.438095 9.752381-5.36381 15.11619-8.289524 4.87619-3.413333 9.264762-6.339048 14.140953-9.752381 4.388571-3.413333 8.777143-7.314286 12.678095-11.215238 4.388571-3.900952 7.801905-7.801905 11.702857-12.190476 3.413333-4.388571 7.314286-8.777143 10.24-13.653334 0.487619-0.975238 0.975238-1.950476 1.462857-2.438095 2.438095-3.900952 4.87619-7.801905 7.314286-12.190476 2.925714-4.87619 5.36381-10.24 7.314286-15.116191 2.438095-5.36381 4.388571-10.727619 5.851428-16.091428 1.950476-5.36381 2.925714-10.727619 4.388572-16.091429 0.975238-5.851429 1.950476-11.215238 2.438095-16.579047 0.487619-5.851429 0.975238-11.702857 0.975238-17.066667 0-3.900952-0.487619-7.801905-0.487619-12.190476-0.487619-5.851429-1.462857-11.215238-1.950476-16.579048-0.975238-5.851429-2.438095-11.215238-3.900953-16.579048-1.950476-5.36381-3.413333-10.727619-5.363809-16.091428-1.950476-5.36381-4.388571-10.24-6.826667-15.60381-2.925714-4.87619-5.36381-9.752381-8.289524-14.628571-3.413333-4.87619-6.339048-9.264762-9.752381-13.653333-3.900952-4.388571-7.314286-8.289524-11.702857-12.678096l-6.339047-6.339047c-11.215238-8.777143-22.918095-17.066667-34.620953-24.380953-1.950476-0.975238-3.413333-1.950476-4.87619-2.438095-5.36381-8.777143-12.678095-11.215238-20.48-13.653333z" fill="#E0234E"></path>
</svg>
