<svg version="1.1" id="Layer_1" xmlns="http://www.w3.org/2000/svg" xmlns:xlink="http://www.w3.org/1999/xlink" x="0px" y="0px"
	 width="100%" viewBox="0 0 600 600" enable-background="new 0 0 600 600" xml:space="preserve">
<path fill="#FEFDFB" opacity="1.000000" stroke="none" 
	d="
M297.444153,601.000000 
	C294.470337,598.695190 292.180084,596.031433 289.365387,594.153931 
	C281.475250,588.891174 273.471375,583.776245 265.275970,579.009399 
	C263.196442,577.799805 260.010468,577.251953 257.716980,577.856689 
	C245.005020,581.208740 232.420746,585.042664 219.769562,588.629822 
	C217.381882,589.306885 215.650742,589.267700 213.630188,586.567566 
	C208.730148,580.019592 202.945740,574.131653 197.493088,567.999573 
	C194.322662,564.434021 190.878876,561.084167 187.983719,557.310608 
	C185.871628,554.557739 183.533707,553.872620 180.202057,553.920410 
	C166.380341,554.118591 152.554138,554.003662 138.234116,554.003662 
	C132.839920,541.992554 127.193306,529.973755 122.071922,517.735107 
	C120.100899,513.024902 117.099197,510.328949 112.353333,509.079865 
	C106.926300,507.651550 101.605888,505.306427 96.108208,504.810059 
	C91.149643,504.362396 85.978416,505.670929 80.964142,506.560883 
	C69.517342,508.592438 58.111225,510.852722 46.680931,512.978943 
	C45.908703,513.122620 45.072704,512.923340 44.296749,512.885071 
	C46.891129,498.062927 49.435875,483.472687 52.015682,468.888702 
	C52.210526,467.787201 52.562164,466.690643 52.998108,465.658173 
	C56.144749,458.206055 50.773277,454.026825 46.786808,449.286499 
	C36.092068,436.569489 25.421297,423.832306 14.163347,410.414703 
	C17.952698,409.484314 20.947372,408.339142 24.014801,408.090149 
	C28.856688,407.697052 31.000700,405.927521 31.176735,400.636017 
	C31.379143,394.551880 33.641293,388.513458 33.642044,382.455017 
	C33.642414,379.446686 31.009260,376.080475 28.832684,373.494720 
	C21.544096,364.835907 13.951156,356.431976 6.414998,347.983734 
	C4.139123,345.432434 3.398544,342.983032 4.993860,339.614807 
	C10.489676,328.011444 15.845162,316.337036 20.953199,304.559204 
	C21.802172,302.601685 21.888992,299.677948 21.065828,297.735596 
	C16.247183,286.365448 11.413963,274.970764 5.818145,263.974976 
	C3.391279,259.206146 4.579478,256.283661 7.586076,252.844406 
	C15.769695,243.483063 23.563847,233.767502 32.021423,224.665344 
	C36.113186,220.261749 32.685726,216.264587 32.444271,212.293228 
	C31.943981,204.064728 30.214462,195.911285 29.005632,187.724731 
	C28.933393,187.235519 29.150120,186.661804 28.972204,186.236191 
	C25.402151,177.695938 30.180517,173.398636 36.880413,169.480820 
	C45.767391,164.284149 54.216331,158.341064 63.070290,153.083832 
	C66.365540,151.127197 67.513969,148.397614 67.970665,145.082809 
	C69.700958,132.523972 71.198242,119.930283 73.173203,107.411232 
	C73.433884,105.758797 75.704933,103.678070 77.461983,103.128006 
	C88.934891,99.536369 100.458939,96.063545 112.100082,93.072723 
	C117.905663,91.581154 120.527657,87.619888 122.687912,82.754456 
	C127.827354,71.179153 133.014099,59.624844 138.211121,47.996273 
	C151.099899,47.996273 163.824753,47.196136 176.385834,48.285091 
	C184.402740,48.980099 188.330368,44.678463 192.587646,39.843246 
	C198.422348,33.216492 204.065216,26.420877 209.793091,19.700010 
	C210.856247,18.452530 212.168808,17.348635 212.954010,15.947455 
	C214.619370,12.975648 216.852264,12.504745 219.954056,13.410316 
	C232.424240,17.050982 244.894348,20.707668 257.462555,23.982027 
	C259.714844,24.568802 262.852081,24.082905 264.862152,22.885761 
	C275.361969,16.632334 285.637482,10.001429 295.961212,3.454870 
	C296.627625,3.032277 297.044403,2.216076 297.288666,1.291489 
	C299.370575,1.000000 301.741119,1.000000 304.555847,1.000000 
	C307.529572,3.304778 309.819733,5.968477 312.634399,7.845846 
	C320.524353,13.108396 328.528076,18.222971 336.723206,22.989731 
	C338.802887,24.199411 341.988556,24.748833 344.281769,24.144159 
	C356.993378,20.792336 369.577209,16.958313 382.228088,13.371540 
	C384.614105,12.695062 386.346924,12.727933 388.368530,15.429768 
	C393.268066,21.977816 399.051971,27.865860 404.504242,33.997875 
	C407.674469,37.563332 411.116364,40.914246 414.014282,44.685768 
	C416.125366,47.433311 418.457947,48.128857 421.793549,48.080456 
	C435.614838,47.879894 449.440704,47.996273 463.763550,47.996273 
	C469.157684,60.003529 474.807251,72.020142 479.926849,84.258453 
	C481.897675,88.969673 484.918701,91.590500 489.637115,92.926674 
	C501.205994,96.202797 512.702576,99.737755 524.297363,102.916466 
	C527.739014,103.859985 528.672668,105.776024 529.092468,109.072632 
	C530.423767,119.527306 532.145874,129.932236 533.723816,140.355362 
	C533.771729,140.671631 534.019165,140.998337 533.967834,141.283066 
	C532.383423,150.072647 538.991821,153.261108 544.746399,156.956390 
	C553.538269,162.601974 562.357056,168.207901 571.250549,173.691040 
	C573.457458,175.051682 574.384216,176.609665 574.029053,179.184372 
	C572.917603,187.241196 571.997375,195.324768 570.849976,203.376160 
	C570.030090,209.129532 568.239624,214.857468 568.315979,220.577606 
	C568.353699,223.396469 571.358093,226.412140 573.505615,228.923416 
	C580.862366,237.525986 588.417480,245.959503 595.934265,254.424255 
	C598.126892,256.893372 598.436218,259.319977 596.979370,262.413757 
	C591.509705,274.028961 586.143555,285.697327 581.042053,297.477234 
	C580.196960,299.428711 580.136108,302.346558 580.958984,304.290283 
	C585.773071,315.662323 590.568970,327.076782 596.196411,338.053772 
	C598.672913,342.884308 597.345459,345.767395 594.381470,349.173096 
	C586.218689,358.552521 578.413025,368.257721 569.952576,377.356506 
	C566.034607,381.570129 569.579773,385.389374 569.294312,389.338226 
	C569.009949,393.270233 570.638123,397.301331 570.928711,401.325043 
	C571.229370,405.487061 572.965881,407.609131 577.208435,408.062836 
	C580.502258,408.415100 583.731201,409.374634 587.830017,410.242249 
	C582.159302,417.130829 577.070251,423.421661 571.862793,429.612885 
	C564.285950,438.621124 556.578796,447.520325 549.062927,456.578644 
	C548.252502,457.555389 547.861023,459.362854 548.085938,460.642395 
	C550.994873,477.189240 554.042358,493.711853 557.097778,510.232635 
	C557.236328,510.982056 557.782776,511.656067 558.675293,513.431458 
	C550.879028,512.020081 543.946655,510.807434 537.031616,509.502930 
	C527.514648,507.707520 518.050903,505.565674 508.476471,504.179077 
	C505.667938,503.772369 502.533813,505.328522 499.598053,506.158752 
	C496.048950,507.162476 492.621063,508.844391 489.017029,509.348328 
	C482.983673,510.191986 481.343201,514.850098 479.339233,519.266602 
	C474.106628,530.798523 468.984039,542.380371 463.790192,554.003662 
	C450.893738,554.003662 438.168365,554.808594 425.608704,553.713318 
	C417.582611,553.013428 413.668060,557.338074 409.411102,562.162598 
	C403.569611,568.782776 397.931641,575.582520 392.203979,582.303223 
	C391.140991,583.550476 389.831665,584.655884 389.045074,586.056519 
	C387.377350,589.025879 385.144775,589.493958 382.042480,588.588135 
	C369.572906,584.947205 357.102753,581.292480 344.534851,578.019104 
	C342.282715,577.432556 339.145874,577.917419 337.136261,579.114319 
	C326.636871,585.367798 316.361847,591.998840 306.038513,598.545410 
	C305.372192,598.967957 304.955444,599.783997 304.711304,600.708496 
	C302.629425,601.000000 300.258881,601.000000 297.444153,601.000000 
M566.033081,411.167786 
	C564.648376,401.114532 563.100281,391.078857 562.012512,380.993591 
	C561.786133,378.895386 562.692139,376.140533 564.051880,374.493866 
	C572.003479,364.864716 580.150696,355.391052 588.451538,346.060272 
	C590.687378,343.547058 590.846130,341.641022 589.413330,338.630249 
	C584.127197,327.522125 579.306274,316.192902 574.041565,305.074097 
	C572.603027,302.035858 572.781250,299.620300 574.162537,296.690979 
	C579.409546,285.563934 584.362427,274.298370 589.589111,263.161469 
	C590.861328,260.450623 590.904602,258.585968 588.722107,256.149811 
	C580.388794,246.848038 572.212830,237.395187 564.303284,227.732590 
	C562.768555,225.857712 561.819885,222.691849 562.088806,220.287964 
	C563.475830,207.891556 565.246643,195.534058 567.120117,183.198929 
	C567.592773,180.086975 566.693909,178.380005 564.086792,176.744049 
	C553.795410,170.286392 543.706665,163.504913 533.389038,157.090836 
	C530.461365,155.270782 528.900757,153.257584 528.441467,149.751160 
	C526.842590,137.545593 524.778381,125.400856 523.190002,113.194099 
	C522.786011,110.089180 521.781982,108.684418 518.662659,107.815033 
	C506.494171,104.423637 494.387421,100.791481 482.362946,96.921822 
	C480.329803,96.267517 478.107635,94.346230 477.176544,92.426498 
	C471.661804,81.056084 466.393372,69.561363 461.299683,57.994995 
	C460.032349,55.117222 458.516449,54.046150 455.365387,54.089500 
	C442.869995,54.261391 430.369019,54.045940 417.874237,54.239086 
	C414.690643,54.288296 412.689545,53.199150 410.690369,50.845623 
	C402.606201,41.328541 394.264679,32.030197 386.171448,22.520632 
	C384.266571,20.282434 382.610382,19.870369 379.764313,20.745626 
	C367.848602,24.410082 355.875427,27.911461 343.818176,31.071522 
	C341.457306,31.690281 338.160431,31.303524 336.095459,30.056015 
	C325.271118,23.516708 314.653198,16.628803 304.088013,9.672939 
	C301.780060,8.153433 300.215363,8.163044 297.908051,9.675010 
	C287.188080,16.699741 276.396759,23.623863 265.447601,30.282404 
	C263.624847,31.390881 260.697968,31.745516 258.616150,31.191139 
	C246.570038,27.983313 234.582504,24.533777 222.672424,20.851416 
	C219.473495,19.862373 217.584900,20.313534 215.419785,22.888691 
	C207.381271,32.449554 199.195572,41.893169 190.808487,51.148232 
	C189.370895,52.734600 186.703873,53.965309 184.563492,54.031864 
	C171.748749,54.430340 158.921951,54.512886 146.099075,54.521217 
	C143.395462,54.522976 141.961136,55.336761 140.826965,57.882736 
	C135.684097,69.427391 130.446442,80.935852 124.891380,92.285278 
	C123.897621,94.315598 121.492584,96.298386 119.318451,97.000702 
	C107.455971,100.832672 95.490585,104.358727 83.492813,107.750221 
	C80.534958,108.586334 79.219101,109.746246 78.795212,113.009628 
	C77.166847,125.546097 75.263725,138.053787 73.077011,150.504395 
	C72.686134,152.729965 70.909790,155.292175 69.013123,156.576813 
	C58.678440,163.576614 48.150684,170.296448 37.581802,176.941559 
	C35.124290,178.486694 34.358845,180.058594 34.805603,182.991516 
	C36.734547,195.654861 38.490936,208.348129 40.012577,221.066101 
	C40.248333,223.036575 39.506973,225.663422 38.248440,227.185410 
	C30.289871,236.809799 22.153040,246.292664 13.854674,255.626312 
	C11.582373,258.182098 11.003976,260.111603 12.585606,263.401062 
	C17.916300,274.487823 22.984930,285.710144 27.760195,297.046387 
	C28.708969,299.298737 28.739759,302.635620 27.787403,304.873962 
	C22.841599,316.498138 17.503635,327.958160 12.146868,339.402649 
	C11.000124,341.852570 11.179321,343.450226 13.036900,345.544037 
	C21.546822,355.136200 29.929474,364.846069 38.127663,374.705017 
	C39.408184,376.244965 40.233826,378.852509 40.019390,380.830841 
	C38.890339,391.247406 37.359974,401.620483 35.287022,412.362000 
	C32.317310,412.995209 29.347601,413.628418 25.919292,414.359406 
	C34.661903,424.850311 42.494987,435.462433 51.615612,444.819550 
	C59.228928,452.630341 62.368404,460.508087 58.240196,470.843445 
	C57.637665,472.351929 57.628952,474.096649 57.338211,475.730774 
	C55.611980,485.433044 53.883621,495.134979 52.077003,505.280487 
	C67.084915,502.703156 81.440094,500.237915 96.557709,498.020233 
	C104.197639,500.318604 111.912346,502.404388 119.430489,505.048981 
	C121.595703,505.810669 123.930992,507.823151 124.931122,509.874939 
	C130.465881,521.229919 135.697708,532.736267 140.828094,544.281982 
	C142.020630,546.965637 143.494537,547.943848 146.436798,547.906921 
	C158.929276,547.750000 171.427063,547.969727 183.917816,547.755005 
	C187.298676,547.696899 189.399231,548.894348 191.501251,551.372437 
	C199.361847,560.639160 207.538925,569.638550 215.347519,578.947754 
	C217.641190,581.682190 219.658554,582.129211 222.998489,581.088257 
	C234.579269,577.478577 246.306320,574.339844 257.901917,570.775269 
	C261.051422,569.807007 263.454468,570.036316 266.253937,571.892944 
	C276.653046,578.789856 287.288544,585.329956 297.705109,592.201355 
	C300.157410,593.818970 301.869995,593.789795 304.308960,592.190247 
	C314.885651,585.253784 325.527466,578.406433 336.348816,571.862671 
	C338.291656,570.687805 341.397278,570.317444 343.615601,570.903015 
	C355.504395,574.041443 367.327789,577.453674 379.069672,581.106018 
	C382.447327,582.156555 384.459869,581.641479 386.734253,578.932129 
	C394.654907,569.496582 402.725800,560.179077 411.021790,551.073792 
	C412.560852,549.384644 415.379883,548.057007 417.656921,547.978577 
	C430.132446,547.548950 442.623901,547.434265 455.108185,547.505920 
	C458.411163,547.524841 460.127350,546.584961 461.487762,543.487427 
	C466.501007,532.072815 471.712372,520.739502 477.165314,509.529358 
	C478.096375,507.615265 480.340576,505.765442 482.382050,505.067688 
	C490.243805,502.380585 498.269653,500.173431 507.066559,497.821716 
	C521.201355,500.295654 535.336182,502.769562 550.002319,505.336517 
	C547.377502,490.992004 545.028992,477.311371 542.303589,463.706238 
	C541.299744,458.694946 541.851624,454.904602 545.498840,450.789978 
	C555.936523,439.014343 565.780762,426.712677 576.013611,414.431580 
	C572.406067,413.554260 569.233154,412.782654 566.033081,411.167786 
z"/>
<path fill="#1A2541" opacity="1.000000" stroke="none" 
	d="
M95.795273,497.772644 
	C81.440094,500.237915 67.084915,502.703156 52.077003,505.280487 
	C53.883621,495.134979 55.611980,485.433044 57.338211,475.730774 
	C57.628952,474.096649 57.637665,472.351929 58.240196,470.843445 
	C62.368404,460.508087 59.228928,452.630341 51.615612,444.819550 
	C42.494987,435.462433 34.661903,424.850311 25.919292,414.359406 
	C29.347601,413.628418 32.317310,412.995209 36.047554,412.218506 
	C45.218628,410.565857 53.629162,409.056671 62.328045,407.495789 
	C60.341614,397.621643 58.488998,388.412689 56.569752,378.872528 
	C63.754551,377.349426 70.375908,375.945770 77.436676,374.559265 
	C80.487541,374.079712 83.094894,373.560211 85.711044,373.089569 
	C135.545670,364.125305 185.710770,357.488037 236.309006,355.709900 
	C275.038879,354.348877 313.875488,353.997498 352.602112,355.204254 
	C384.314453,356.192413 416.009705,359.467224 447.572021,362.987885 
	C473.488556,365.878754 499.198486,370.621582 525.331238,374.697968 
	C532.122009,376.145447 538.581604,377.438538 545.451416,378.813751 
	C543.473267,388.647705 541.616089,397.880463 539.653320,407.637817 
	C548.745850,409.143646 557.403015,410.577362 566.060242,412.011047 
	C569.233154,412.782654 572.406067,413.554260 576.013611,414.431580 
	C565.780762,426.712677 555.936523,439.014343 545.498840,450.789978 
	C541.851624,454.904602 541.299744,458.694946 542.303589,463.706238 
	C545.028992,477.311371 547.377502,490.992004 550.002319,505.336517 
	C535.336182,502.769562 521.201355,500.295654 506.322296,497.577637 
	C488.825470,494.257385 472.072906,491.181183 454.936920,488.034607 
	C462.865021,480.470795 470.358368,473.321747 478.618042,465.441620 
	C475.301361,465.013153 473.229401,464.745483 470.802185,464.338074 
	C459.569427,462.699036 448.698822,461.147125 437.813080,459.709869 
	C398.498230,454.518982 358.977905,451.462738 319.357849,451.385834 
	C285.925049,451.320923 252.420227,452.145203 219.074188,454.429138 
	C189.573685,456.449707 160.248184,461.025360 130.444244,464.465820 
	C128.193207,464.792358 126.343338,465.126038 123.540878,465.631531 
	C131.718216,473.415833 139.199326,480.537354 146.974731,487.939026 
	C144.908005,488.361755 143.295822,488.710358 141.676163,489.019806 
	C126.383263,491.941223 111.089081,494.855957 95.795273,497.772644 
M241.384415,399.393494 
	C241.384415,405.150269 241.384415,410.907013 241.384415,417.058350 
	C244.384109,416.757751 246.136810,416.582123 248.194138,416.375946 
	C247.762573,410.718750 247.362839,405.478790 246.963104,400.238831 
	C247.468353,400.117889 247.973602,399.996948 248.478851,399.876007 
	C250.699692,405.232666 252.920547,410.589294 255.080429,415.798828 
	C259.813782,417.146423 262.298309,415.776611 263.242981,410.852478 
	C264.057312,406.607697 265.846527,402.549988 267.204773,398.409607 
	C267.396973,398.477356 267.589172,398.545105 267.781403,398.612854 
	C268.050201,404.297791 268.319031,409.982697 268.599609,415.916046 
	C271.041199,415.805420 272.800659,415.725677 274.380981,415.654083 
	C274.380981,406.556396 274.380981,397.851135 274.380981,388.806488 
	C272.461243,388.806488 271.155151,388.947937 269.889771,388.780884 
	C265.436859,388.193176 262.889343,389.746582 262.012787,394.454163 
	C261.285889,398.357910 259.754150,402.111755 258.202393,407.156189 
	C256.626068,403.238007 255.515686,400.527496 254.442932,397.802185 
	C251.030197,389.131989 251.035248,389.125977 241.869751,389.954132 
	C241.627853,389.976013 241.414444,390.313293 241.209473,390.485291 
	C241.209473,393.154236 241.209473,395.802460 241.384415,399.393494 
M319.920013,414.458893 
	C321.910797,409.133392 323.901550,403.807892 325.892303,398.482422 
	C326.170990,398.580170 326.449646,398.677948 326.728333,398.775726 
	C326.728333,404.341553 326.728333,409.907379 326.728333,415.570770 
	C328.901917,415.570770 330.793091,415.570770 332.944214,415.570770 
	C332.944214,406.561676 332.944214,397.841248 332.944214,388.809875 
	C331.425690,388.809875 330.083801,388.998840 328.814392,388.775543 
	C324.476257,388.012421 322.135559,389.617096 321.041809,394.008118 
	C320.042847,398.018677 318.259491,401.833832 316.514038,406.570404 
	C315.045227,402.112793 313.934723,398.641541 312.758179,395.192749 
	C310.227020,387.773071 308.659668,386.982391 300.321411,388.909271 
	C300.321411,397.610718 300.321411,406.337799 300.321411,415.008240 
	C302.414490,415.008240 304.162964,415.008240 306.299988,415.008240 
	C306.299988,409.417999 306.299988,404.058716 306.299988,398.699402 
	C308.653656,402.476959 310.317352,406.383636 311.293457,410.455200 
	C312.438019,415.229187 314.989349,416.663849 319.920013,414.458893 
M475.596954,400.913788 
	C474.609375,401.418488 472.865051,401.790009 472.749237,402.448090 
	C471.317535,410.583313 470.123230,418.760315 468.826019,427.198120 
	C471.455170,427.563416 473.530273,427.851715 475.760345,428.161560 
	C476.367249,424.862335 476.901306,421.959106 477.420807,419.134888 
	C481.634583,417.918365 483.369202,420.081207 484.182037,423.604095 
	C485.378601,428.789886 488.307312,431.580505 494.234192,430.570648 
	C492.840607,426.882874 491.464386,423.241119 490.049316,419.496460 
	C494.920563,417.827423 497.052307,414.571075 496.340088,409.816101 
	C495.629028,405.068542 492.072174,403.442810 487.825256,402.789093 
	C484.044556,402.207153 480.269714,401.587250 475.596954,400.913788 
M117.885872,401.439606 
	C115.476906,402.040131 112.916626,402.307434 110.693382,403.316956 
	C107.095207,404.950897 104.899025,407.714752 105.700249,412.056458 
	C106.453720,416.139496 109.108803,417.977539 113.010979,418.256500 
	C115.827446,418.457825 118.683479,418.284515 121.468330,418.667511 
	C122.706871,418.837830 123.813530,419.967072 124.980042,420.661041 
	C123.966568,421.771423 122.956047,423.822174 121.939095,423.825348 
	C118.055855,423.837524 114.170555,423.190277 110.286018,422.789337 
	C110.252609,422.278137 110.219200,421.766937 110.185783,421.255737 
	C108.741310,422.580933 107.296837,423.906097 105.849106,425.234253 
	C111.558853,431.275146 124.109459,431.928223 129.388168,426.042328 
	C131.158554,424.068359 132.036255,420.144165 131.426865,417.557953 
	C130.959579,415.574707 127.726006,413.624756 125.340721,412.874451 
	C122.590057,412.009216 119.388954,412.693604 116.445190,412.273041 
	C115.052864,412.074127 113.804253,410.869171 112.490524,410.120026 
	C113.793236,409.084473 115.090942,407.189514 116.399643,407.181946 
	C119.713638,407.162598 123.032578,407.990570 127.031937,408.579712 
	C127.615479,407.924896 128.764496,406.635590 131.096588,404.018707 
	C126.149094,402.953949 122.433823,402.154388 117.885872,401.439606 
M184.545242,393.975708 
	C180.612457,394.366943 176.679672,394.758209 172.397415,395.184235 
	C173.259476,404.272491 174.084686,412.972015 174.949249,422.086548 
	C177.528824,421.776001 179.704956,421.514069 181.978882,421.240326 
	C181.705109,417.606903 181.475067,414.553894 181.273590,411.879761 
	C186.288666,409.438690 188.051559,412.806427 189.484665,415.669830 
	C191.943115,420.581970 195.552124,420.697571 200.478745,419.273010 
	C198.045502,415.768890 195.896866,412.674652 193.767487,409.608124 
	C198.017532,405.612183 199.105408,402.361877 197.497955,398.538849 
	C195.692932,394.246002 192.044617,393.593323 187.978271,393.812134 
	C187.147125,393.856842 186.314743,393.877991 184.545242,393.975708 
M378.329987,396.273895 
	C377.587860,403.012634 379.139008,405.344971 385.580811,407.050659 
	C387.664764,407.602478 389.871094,407.812103 391.845886,408.611725 
	C393.046051,409.097656 393.910431,410.412872 394.925629,411.355591 
	C393.693695,412.228973 392.246979,414.036835 391.267487,413.811707 
	C387.314270,412.903168 383.505127,411.367645 379.642761,410.063599 
	C379.706207,409.616028 379.769653,409.168457 379.833069,408.720856 
	C378.256439,409.774231 376.679810,410.827606 375.186951,411.825043 
	C378.171753,419.011841 390.694916,421.063477 397.104340,418.279877 
	C400.539215,416.788147 402.758118,414.035400 401.827240,410.471954 
	C401.176239,407.979797 399.176453,405.259308 396.994629,403.899048 
	C394.437775,402.305084 390.970551,402.240631 388.020569,401.174194 
	C386.821045,400.740570 385.943695,399.415649 384.919800,398.496277 
	C386.213959,397.674622 387.730469,395.944427 388.761749,396.196777 
	C392.257294,397.052185 395.581085,398.609161 399.539520,400.114471 
	C400.197449,399.598633 401.584991,398.510681 402.963135,397.430115 
	C396.753845,389.288300 384.275726,388.463470 378.329987,396.273895 
M440.991241,423.734833 
	C447.374420,424.475037 453.757599,425.215210 460.552185,426.003113 
	C460.710754,424.071747 460.836945,422.534515 460.972687,420.881104 
	C455.753876,420.163086 451.009705,419.510345 445.934875,418.812134 
	C446.181366,416.814911 446.395935,415.076111 446.643982,413.065979 
	C451.511841,413.623566 456.074280,414.146149 460.827515,414.690582 
	C461.060059,413.074188 461.263092,411.663116 461.525909,409.836365 
	C456.638611,409.141174 452.088806,408.493988 447.295624,407.812195 
	C447.607269,405.981781 447.873779,404.416412 448.167755,402.689697 
	C453.171539,403.222931 457.908661,403.727722 462.956421,404.265656 
	C463.065460,402.294250 463.151642,400.736542 463.244812,399.052307 
	C455.805298,398.189606 448.788818,397.375946 441.515137,396.532471 
	C440.395203,405.167145 439.300629,413.198669 438.402191,421.252075 
	C438.324402,421.949341 439.541931,422.791138 440.991241,423.734833 
M149.047012,397.072968 
	C147.489304,397.615417 145.860214,398.010712 144.386276,398.725800 
	C138.061569,401.794373 135.377304,408.291901 137.334869,415.544678 
	C139.079483,422.008545 144.525528,425.909241 151.583176,425.516815 
	C158.333344,425.141510 165.714737,422.366119 166.250290,414.064514 
	C164.019348,413.839661 161.776001,413.613556 159.680038,413.402283 
	C158.993393,414.815521 158.636520,415.948822 157.968918,416.852570 
	C155.534775,420.147675 150.615097,420.647919 147.348190,418.025635 
	C143.829529,415.201263 143.091476,408.851624 145.880096,405.395508 
	C148.344711,402.340912 153.936111,401.155060 156.006104,404.073608 
	C159.155609,408.514130 161.896942,406.384979 165.139725,405.092682 
	C162.554855,398.290131 158.971161,396.443756 149.047012,397.072968 
M232.547882,406.459656 
	C232.156204,401.201782 231.764511,395.943939 231.343384,390.290833 
	C228.668030,390.581482 226.479965,390.819183 224.330261,391.052734 
	C224.618896,396.267639 224.824524,400.910217 225.147415,405.544647 
	C225.444260,409.805206 224.174942,412.820526 219.386917,413.103638 
	C215.315933,413.344360 213.366898,411.103302 212.981445,406.030090 
	C212.621902,401.298004 212.205780,396.570190 211.806061,391.737518 
	C209.146088,391.874634 207.070740,391.981628 204.781219,392.099670 
	C205.161072,397.369598 205.525726,402.006439 205.823044,406.647644 
	C206.344223,414.783356 210.135025,418.730316 217.767838,419.017273 
	C226.792282,419.356476 231.485397,415.635193 232.547882,406.459656 
M349.264709,395.731079 
	C346.160156,402.351044 343.055573,408.971008 339.492889,416.567841 
	C342.955963,415.987762 347.035858,416.152222 347.370544,415.111877 
	C349.687042,407.910553 355.228790,411.637573 359.408051,411.115356 
	C360.174194,411.019623 361.727875,412.069794 361.846680,412.772217 
	C362.736755,418.034363 366.325226,417.410004 370.630707,416.875671 
	C367.394440,408.105682 364.297272,399.603516 361.059113,391.155365 
	C360.813507,390.514648 359.613983,390.039062 358.777618,389.858643 
	C354.212158,388.873596 350.707611,389.889740 349.264709,395.731079 
M416.122498,409.575226 
	C415.823669,413.307343 415.524841,417.039459 415.215546,420.902496 
	C417.749634,421.101624 419.825623,421.264771 422.216553,421.452637 
	C422.973969,414.277283 423.682220,407.567444 424.391968,400.843842 
	C427.496979,400.843842 430.274506,400.843842 433.518402,400.843842 
	C433.657562,399.129639 433.793945,397.449829 433.949249,395.537354 
	C425.258789,394.699829 417.092682,393.912872 408.574249,393.091949 
	C408.426086,395.281799 408.311249,396.979706 408.199677,398.628998 
	C411.490540,399.077332 414.196686,399.446014 417.192566,399.854156 
	C416.819702,403.118652 416.502350,405.897095 416.122498,409.575226 
z"/>
<path fill="#FAAA02" opacity="1.000000" stroke="none" 
	d="
M76.997261,374.542114 
	C70.375908,375.945770 63.754551,377.349426 56.569752,378.872528 
	C58.488998,388.412689 60.341614,397.621643 62.328045,407.495789 
	C53.629162,409.056671 45.218628,410.565857 36.388496,412.041809 
	C37.359974,401.620483 38.890339,391.247406 40.019390,380.830841 
	C40.233826,378.852509 39.408184,376.244965 38.127663,374.705017 
	C29.929474,364.846069 21.546822,355.136200 13.036900,345.544037 
	C11.179321,343.450226 11.000124,341.852570 12.146868,339.402649 
	C17.503635,327.958160 22.841599,316.498138 27.787403,304.873962 
	C28.739759,302.635620 28.708969,299.298737 27.760195,297.046387 
	C22.984930,285.710144 17.916300,274.487823 12.585606,263.401062 
	C11.003976,260.111603 11.582373,258.182098 13.854674,255.626312 
	C22.153040,246.292664 30.289871,236.809799 38.248440,227.185410 
	C39.506973,225.663422 40.248333,223.036575 40.012577,221.066101 
	C38.490936,208.348129 36.734547,195.654861 34.805603,182.991516 
	C34.358845,180.058594 35.124290,178.486694 37.581802,176.941559 
	C48.150684,170.296448 58.678440,163.576614 69.013123,156.576813 
	C70.909790,155.292175 72.686134,152.729965 73.077011,150.504395 
	C75.263725,138.053787 77.166847,125.546097 78.795212,113.009628 
	C79.219101,109.746246 80.534958,108.586334 83.492813,107.750221 
	C95.490585,104.358727 107.455971,100.832672 119.318451,97.000702 
	C121.492584,96.298386 123.897621,94.315598 124.891380,92.285278 
	C130.446442,80.935852 135.684097,69.427391 140.826965,57.882736 
	C141.961136,55.336761 143.395462,54.522976 146.099075,54.521217 
	C158.921951,54.512886 171.748749,54.430340 184.563492,54.031864 
	C186.703873,53.965309 189.370895,52.734600 190.808487,51.148232 
	C199.195572,41.893169 207.381271,32.449554 215.419785,22.888691 
	C217.584900,20.313534 219.473495,19.862373 222.672424,20.851416 
	C234.582504,24.533777 246.570038,27.983313 258.616150,31.191139 
	C260.697968,31.745516 263.624847,31.390881 265.447601,30.282404 
	C276.396759,23.623863 287.188080,16.699741 297.908051,9.675010 
	C300.215363,8.163044 301.780060,8.153433 304.088013,9.672939 
	C314.653198,16.628803 325.271118,23.516708 336.095459,30.056015 
	C338.160431,31.303524 341.457306,31.690281 343.818176,31.071522 
	C355.875427,27.911461 367.848602,24.410082 379.764313,20.745626 
	C382.610382,19.870369 384.266571,20.282434 386.171448,22.520632 
	C394.264679,32.030197 402.606201,41.328541 410.690369,50.845623 
	C412.689545,53.199150 414.690643,54.288296 417.874237,54.239086 
	C430.369019,54.045940 442.869995,54.261391 455.365387,54.089500 
	C458.516449,54.046150 460.032349,55.117222 461.299683,57.994995 
	C466.393372,69.561363 471.661804,81.056084 477.176544,92.426498 
	C478.107635,94.346230 480.329803,96.267517 482.362946,96.921822 
	C494.387421,100.791481 506.494171,104.423637 518.662659,107.815033 
	C521.781982,108.684418 522.786011,110.089180 523.190002,113.194099 
	C524.778381,125.400856 526.842590,137.545593 528.441467,149.751160 
	C528.900757,153.257584 530.461365,155.270782 533.389038,157.090836 
	C543.706665,163.504913 553.795410,170.286392 564.086792,176.744049 
	C566.693909,178.380005 567.592773,180.086975 567.120117,183.198929 
	C565.246643,195.534058 563.475830,207.891556 562.088806,220.287964 
	C561.819885,222.691849 562.768555,225.857712 564.303284,227.732590 
	C572.212830,237.395187 580.388794,246.848038 588.722107,256.149811 
	C590.904602,258.585968 590.861328,260.450623 589.589111,263.161469 
	C584.362427,274.298370 579.409546,285.563934 574.162537,296.690979 
	C572.781250,299.620300 572.603027,302.035858 574.041565,305.074097 
	C579.306274,316.192902 584.127197,327.522125 589.413330,338.630249 
	C590.846130,341.641022 590.687378,343.547058 588.451538,346.060272 
	C580.150696,355.391052 572.003479,364.864716 564.051880,374.493866 
	C562.692139,376.140533 561.786133,378.895386 562.012512,380.993591 
	C563.100281,391.078857 564.648376,401.114532 566.046631,411.589417 
	C557.403015,410.577362 548.745850,409.143646 539.653320,407.637817 
	C541.616089,397.880463 543.473267,388.647705 545.451416,378.813751 
	C538.581604,377.438538 532.122009,376.145447 525.547180,374.365387 
	C536.210571,340.762909 539.446411,306.927643 535.169800,272.364166 
	C528.445068,218.015823 505.893127,171.108582 466.652771,133.122696 
	C410.293060,78.564728 342.429199,56.360638 264.841583,68.080467 
	C193.440933,78.865746 138.446899,116.339966 100.095726,177.360886 
	C71.772842,222.425705 61.192421,272.064850 66.220970,324.965576 
	C67.828072,341.872437 70.973862,358.545715 76.997261,374.542114 
z"/>
<path fill="#FAAA02" opacity="1.000000" stroke="none" 
	d="
M96.176491,497.896423 
	C111.089081,494.855957 126.383263,491.941223 141.676163,489.019806 
	C143.295822,488.710358 144.908005,488.361755 146.974731,487.939026 
	C139.199326,480.537354 131.718216,473.415833 123.540878,465.631531 
	C126.343338,465.126038 128.193207,464.792358 130.711639,464.721863 
	C139.906906,472.649017 147.928665,480.981232 157.042938,487.867523 
	C212.522873,529.785461 274.789398,544.953247 343.257080,533.048523 
	C393.309265,524.345825 435.809906,500.925659 471.157410,464.477814 
	C473.229401,464.745483 475.301361,465.013153 478.618042,465.441620 
	C470.358368,473.321747 462.865021,480.470795 454.936920,488.034607 
	C472.072906,491.181183 488.825470,494.257385 505.906158,497.560425 
	C498.269653,500.173431 490.243805,502.380585 482.382050,505.067688 
	C480.340576,505.765442 478.096375,507.615265 477.165314,509.529358 
	C471.712372,520.739502 466.501007,532.072815 461.487762,543.487427 
	C460.127350,546.584961 458.411163,547.524841 455.108185,547.505920 
	C442.623901,547.434265 430.132446,547.548950 417.656921,547.978577 
	C415.379883,548.057007 412.560852,549.384644 411.021790,551.073792 
	C402.725800,560.179077 394.654907,569.496582 386.734253,578.932129 
	C384.459869,581.641479 382.447327,582.156555 379.069672,581.106018 
	C367.327789,577.453674 355.504395,574.041443 343.615601,570.903015 
	C341.397278,570.317444 338.291656,570.687805 336.348816,571.862671 
	C325.527466,578.406433 314.885651,585.253784 304.308960,592.190247 
	C301.869995,593.789795 300.157410,593.818970 297.705109,592.201355 
	C287.288544,585.329956 276.653046,578.789856 266.253937,571.892944 
	C263.454468,570.036316 261.051422,569.807007 257.901917,570.775269 
	C246.306320,574.339844 234.579269,577.478577 222.998489,581.088257 
	C219.658554,582.129211 217.641190,581.682190 215.347519,578.947754 
	C207.538925,569.638550 199.361847,560.639160 191.501251,551.372437 
	C189.399231,548.894348 187.298676,547.696899 183.917816,547.755005 
	C171.427063,547.969727 158.929276,547.750000 146.436798,547.906921 
	C143.494537,547.943848 142.020630,546.965637 140.828094,544.281982 
	C135.697708,532.736267 130.465881,521.229919 124.931122,509.874939 
	C123.930992,507.823151 121.595703,505.810669 119.430489,505.048981 
	C111.912346,502.404388 104.197639,500.318604 96.176491,497.896423 
z"/>
<path fill="#FEFEFE" opacity="1.000000" stroke="none" 
	d="
M77.436676,374.559265 
	C70.973862,358.545715 67.828072,341.872437 66.220970,324.965576 
	C61.192421,272.064850 71.772842,222.425705 100.095726,177.360886 
	C138.446899,116.339966 193.440933,78.865746 264.841583,68.080467 
	C342.429199,56.360638 410.293060,78.564728 466.652771,133.122696 
	C505.893127,171.108582 528.445068,218.015823 535.169800,272.364166 
	C539.446411,306.927643 536.210571,340.762909 525.215942,374.210999 
	C499.198486,370.621582 473.488556,365.878754 447.572021,362.987885 
	C416.009705,359.467224 384.314453,356.192413 352.602112,355.204254 
	C313.875488,353.997498 275.038879,354.348877 236.309006,355.709900 
	C185.710770,357.488037 135.545670,364.125305 85.711044,373.089569 
	C83.094894,373.560211 80.487541,374.079712 77.436676,374.559265 
M211.823395,132.565384 
	C212.061722,134.283661 212.300034,136.001953 212.538361,137.720230 
	C213.763794,137.522949 215.393951,137.727646 216.101166,137.015640 
	C216.812332,136.299637 217.134369,133.878403 216.702194,133.589981 
	C215.344894,132.684113 213.552414,132.430267 211.787292,131.141785 
	C211.916367,129.419205 212.045456,127.696625 212.174530,125.974052 
	C210.444794,126.339737 208.715042,126.705421 206.751846,126.276825 
	C207.334717,123.818832 206.914978,121.773529 203.903214,122.111748 
	C202.958679,122.217812 201.380692,124.091965 201.505402,124.951973 
	C201.915665,127.781090 203.887848,128.050339 206.229645,126.820541 
	C206.436356,126.711990 206.804474,126.910736 207.173737,127.695847 
	C206.758789,131.492264 210.163620,130.748383 211.823395,132.565384 
M200.304535,159.944702 
	C199.601624,159.534653 198.945679,158.935669 198.187683,158.747147 
	C194.853851,157.917999 192.145706,159.208572 192.228470,162.595947 
	C192.271866,164.371704 194.553177,167.208359 196.264008,167.589355 
	C199.555023,168.322220 201.384644,165.989044 201.180145,162.486633 
	C201.131958,161.660980 201.012741,160.839478 201.403275,159.291763 
	C202.174896,159.577469 203.018143,160.218109 203.704208,160.079697 
	C205.483505,159.720749 207.987503,159.505341 208.713547,158.320435 
	C209.476898,157.074677 209.096100,154.306244 208.117905,153.075027 
	C207.335938,152.090820 204.417114,151.654770 203.338303,152.352997 
	C202.050156,153.186722 201.584732,155.446213 201.015244,157.171356 
	C200.724991,158.050705 200.986969,159.112320 200.304535,159.944702 
M410.574890,266.799194 
	C410.574890,284.089050 410.574890,301.378937 410.574890,318.708435 
	C416.716827,318.708435 422.448212,318.708435 428.134491,318.708435 
	C428.134491,293.522491 428.134491,268.637604 428.134491,243.469925 
	C420.924927,243.469925 414.065552,243.938553 407.303986,243.326660 
	C401.542633,242.805298 399.405212,244.981857 397.731750,250.296921 
	C392.999054,265.328369 387.532257,280.128662 382.142975,295.628937 
	C375.860199,277.812897 369.811310,260.660065 363.826477,243.688843 
	C354.372467,243.688843 345.411865,243.688843 336.223816,243.688843 
	C336.223816,268.805084 336.223816,293.702606 336.223816,318.780426 
	C341.824066,318.780426 347.225159,318.780426 353.102600,318.780426 
	C353.102600,300.646057 353.102600,282.731964 353.102600,264.817871 
	C356.955627,273.808533 360.167786,282.847839 363.389984,291.883606 
	C366.614716,300.926422 369.849457,309.965729 373.009003,318.808472 
	C379.134399,318.808472 384.771240,318.808472 390.489929,318.808472 
	C396.733032,301.136261 402.923218,283.614014 409.938538,266.021667 
	C410.209381,265.968475 410.480255,265.915253 410.574890,266.799194 
M319.897156,262.398773 
	C322.006378,260.574188 324.115570,258.749603 326.337311,256.827698 
	C325.176941,255.335297 324.344177,254.095566 323.346588,253.006866 
	C310.916809,239.441910 277.746002,237.282455 263.577087,249.093567 
	C252.267593,258.521088 255.005722,277.941498 268.833160,283.869293 
	C273.932648,286.055420 279.680115,286.789581 285.178650,287.968781 
	C290.853973,289.185852 296.731659,289.683655 302.218384,291.440521 
	C304.290863,292.104156 306.698456,295.355743 306.799438,297.527740 
	C306.902100,299.734711 304.696411,302.424011 302.839935,304.217072 
	C301.574493,305.439270 299.207855,305.751343 297.271851,306.012085 
	C284.239319,307.767273 273.200134,304.456665 265.485413,292.829987 
	C260.744354,296.158203 256.163055,299.374298 250.841858,303.109802 
	C253.614365,306.105865 255.763199,309.079224 258.520508,311.295502 
	C270.826935,321.187256 285.271881,322.219147 300.156219,320.524597 
	C304.061005,320.080048 308.002228,318.914062 311.644196,317.399872 
	C322.221252,313.002350 327.232941,304.656433 326.238007,293.880371 
	C325.278412,283.487152 319.865509,277.627197 308.076263,275.116119 
	C299.795471,273.352325 291.349182,272.377167 283.037567,270.741150 
	C279.181854,269.982239 275.285614,268.227356 275.364624,263.533081 
	C275.446655,258.658752 279.464081,257.144379 283.514862,256.154053 
	C284.315826,255.958252 285.165253,255.950943 285.994385,255.881454 
	C297.217346,254.940994 306.971466,257.778961 313.928802,267.281921 
	C316.005707,265.592255 317.679779,264.230347 319.897156,262.398773 
M245.952530,303.297119 
	C247.141708,300.508148 248.330887,297.719177 249.633499,294.664154 
	C245.690475,293.758698 242.635559,293.008270 239.558395,292.364044 
	C236.367569,291.695984 233.155197,291.130768 229.820297,290.495422 
	C227.823685,297.104492 224.529388,302.055267 218.151474,304.341217 
	C206.846008,308.393372 194.911591,303.778748 190.251511,293.509460 
	C184.576324,281.003235 188.717285,264.773193 198.985519,259.376190 
	C200.010025,258.837677 201.110687,258.413483 202.216629,258.065216 
	C214.995758,254.040863 223.790344,258.636536 229.973053,272.722626 
	C236.234482,271.604614 242.553253,270.476379 249.308273,269.270264 
	C246.950073,257.294769 240.225555,249.528320 229.570114,245.043274 
	C221.412384,241.609528 212.856186,241.015411 204.103104,241.829514 
	C182.270264,243.860138 168.383957,258.482056 167.479736,280.545319 
	C166.608948,301.793091 178.873108,317.178986 200.559967,320.394196 
	C218.205917,323.010315 234.566574,320.333496 245.952530,303.297119 
M380.406525,142.906921 
	C381.056610,139.159744 382.504913,134.908142 378.421143,132.471512 
	C372.586884,128.990417 368.078888,132.860336 363.765106,136.358704 
	C360.215057,129.716080 355.319855,129.506165 347.279846,135.547028 
	C347.142670,135.079880 347.132751,134.373871 346.871246,134.263412 
	C345.006683,133.475769 342.615356,131.737152 341.288879,132.325165 
	C338.408325,133.602081 340.491913,134.760117 342.080811,135.913361 
	C342.610565,136.297836 342.350922,138.029510 342.166260,139.095795 
	C341.102448,145.238342 339.952911,151.366028 338.832428,157.498749 
	C339.345978,157.795059 339.859558,158.091370 340.373108,158.387680 
	C341.265503,157.299759 342.547333,156.342041 342.964172,155.095123 
	C343.693237,152.914490 343.895447,150.556992 344.310242,148.272141 
	C345.196869,143.388596 346.792603,138.755066 351.458710,136.350159 
	C353.272614,135.415298 356.041748,135.207947 357.891632,135.922485 
	C358.883270,136.305511 359.395752,139.418518 359.172699,141.178986 
	C358.488678,146.577469 357.344574,151.917679 356.375336,157.303055 
	C360.143677,157.606995 360.163544,157.610672 360.906647,153.591888 
	C362.018494,147.578796 362.182770,141.015366 367.881958,137.168732 
	C369.824127,135.857864 373.021545,135.156143 375.118286,135.825989 
	C376.252411,136.188309 376.871552,140.083679 376.670471,142.289246 
	C376.295715,146.399323 375.016174,150.419830 374.428223,154.522766 
	C374.288757,155.495834 375.217194,157.379028 375.966400,157.561310 
	C377.428619,157.917068 379.111115,157.367538 380.702393,157.192856 
	C380.269073,156.178177 379.741302,155.191483 379.430023,154.140640 
	C379.141205,153.165787 378.855011,152.095886 378.969055,151.114456 
	C379.255707,148.646805 379.769135,146.205490 380.406525,142.906921 
M261.021149,169.446320 
	C255.263275,179.578232 249.505402,189.710129 243.770477,199.801666 
	C247.060593,201.137222 248.933029,199.038818 250.726532,195.999329 
	C252.235855,193.441422 253.956665,189.909668 256.307312,189.197723 
	C260.073090,188.057190 264.437164,188.892212 268.514679,188.892212 
	C269.115906,192.277237 269.412231,195.103699 270.205688,197.782944 
	C270.482513,198.717773 271.892120,199.573593 272.962128,199.926224 
	C273.666046,200.158234 275.389557,199.496902 275.428680,199.111069 
	C275.525391,198.157822 274.919098,197.131668 274.588623,196.137054 
	C274.075195,194.591751 273.364716,193.083740 273.071167,191.498215 
	C271.384735,182.389267 269.796570,173.262131 268.225586,164.425400 
	C263.361694,162.646347 263.011108,166.603958 261.021149,169.446320 
M238.533508,152.194977 
	C240.128738,156.668167 243.720703,158.732697 249.502579,158.499634 
	C255.833664,158.244400 260.851532,154.770660 262.096680,149.781082 
	C263.281403,145.033615 261.651215,141.345505 257.147034,139.051514 
	C255.083389,138.000504 252.604752,137.607391 250.790085,136.270248 
	C249.102036,135.026398 246.857819,132.809387 247.011337,131.230087 
	C247.204803,129.240021 249.199631,126.745171 251.093552,125.730942 
	C256.261719,122.963295 260.354156,125.138519 262.039795,131.955811 
	C263.352844,130.347351 264.987244,129.224640 264.891632,128.276352 
	C264.701782,126.393715 264.070251,123.919998 262.713440,122.909561 
	C258.606354,119.850960 250.448639,120.710533 246.308960,124.087502 
	C240.749847,128.622330 241.473618,135.904694 247.867477,139.149506 
	C249.933838,140.198166 252.428543,140.612991 254.185043,142.003006 
	C255.943665,143.394714 258.212738,145.718933 258.098602,147.495743 
	C257.959503,149.661407 256.028137,152.480469 254.062576,153.616364 
	C248.150024,157.033203 243.076401,154.065216 242.295471,147.254913 
	C241.855682,147.037552 241.415894,146.820190 240.976120,146.602829 
	C240.151016,148.218033 239.325912,149.833237 238.533508,152.194977 
M404.490143,187.614105 
	C408.932037,187.614105 413.373962,187.614105 417.622559,187.614105 
	C420.512085,178.185852 416.281708,172.892670 407.229401,173.822998 
	C401.383820,174.423737 396.293671,179.353668 394.807312,185.854034 
	C393.510437,191.525848 394.949554,196.245407 398.752869,198.793259 
	C402.758728,201.476791 409.986908,201.467728 413.899323,198.505386 
	C414.755676,197.856995 414.917908,196.291824 415.823975,194.142807 
	C403.429810,199.261414 398.169006,197.079071 398.670654,187.614044 
	C400.254608,187.614044 401.873413,187.614044 404.490143,187.614105 
M331.819885,174.031296 
	C328.867615,174.186707 325.825409,173.951721 322.987915,174.605377 
	C320.044037,175.283539 318.192841,177.308975 319.360199,180.922531 
	C322.324585,179.510193 324.957245,177.507645 327.831085,177.062607 
	C332.107880,176.400314 333.310608,178.465897 332.653046,182.990372 
	C327.516449,184.381851 322.418671,185.210480 317.811462,187.184219 
	C314.071533,188.786423 312.895325,192.705688 314.446594,196.527771 
	C316.059692,200.502121 319.654449,201.493454 323.572327,200.465530 
	C325.753662,199.893219 327.749481,198.613617 329.986450,197.579941 
	C329.822479,197.455002 330.020905,197.526093 330.065002,197.651474 
	C331.234650,200.976562 334.437347,200.795059 336.188171,199.675598 
	C338.925385,197.925430 335.705566,197.172562 334.796478,195.955917 
	C334.359619,195.371185 334.718201,194.102570 334.883759,193.173447 
	C335.464569,189.913971 336.201385,186.680740 336.722382,183.412567 
	C337.341949,179.525940 336.745483,176.088150 331.819885,174.031296 
M331.969788,135.480804 
	C330.678009,141.083466 331.025574,147.517654 325.920532,151.383636 
	C323.556458,153.173920 319.722382,154.816940 317.170227,154.154724 
	C313.095673,153.097488 315.087341,148.893097 315.448212,145.949997 
	C315.872314,142.491730 316.865570,139.099670 317.221985,135.638748 
	C317.338348,134.508942 316.521393,132.634232 315.613190,132.210373 
	C314.452789,131.668854 312.767792,132.251556 311.308868,132.349731 
	C311.736542,133.458755 312.360291,134.536774 312.541779,135.684708 
	C312.763611,137.087799 312.784851,138.572739 312.592834,139.981400 
	C312.077515,143.762619 311.079285,147.504303 310.870850,151.294571 
	C310.598480,156.246902 313.331696,159.047287 318.190765,158.415787 
	C321.499176,157.985825 324.635468,156.231216 327.937805,155.036697 
	C327.871704,154.835938 327.898102,155.530624 328.171600,155.647644 
	C330.056213,156.453827 332.548401,158.257523 333.798798,157.635849 
	C336.582489,156.251816 334.079010,155.205215 332.855042,153.990799 
	C332.314575,153.454529 332.658600,151.857422 332.846130,150.784775 
	C333.918182,144.653412 335.063995,138.534927 336.184753,132.412079 
	C335.713196,132.161987 335.241638,131.911911 334.770081,131.661835 
	C333.877258,132.663986 332.984406,133.666138 331.969788,135.480804 
M359.808533,197.339249 
	C361.062225,198.238342 362.224487,199.352234 363.609924,199.941757 
	C364.257690,200.217392 365.482391,199.659592 366.152863,199.117462 
	C366.444855,198.881363 366.049408,197.723343 365.881195,197.003906 
	C365.461975,195.211060 364.506714,193.390305 364.646973,191.651794 
	C364.939423,188.027466 366.107269,184.469772 366.352234,180.846619 
	C366.672546,176.109329 364.233795,173.488251 359.448425,173.921082 
	C355.879059,174.243958 352.422729,175.816742 349.441681,176.680573 
	C348.007507,175.842682 346.620667,174.589279 345.026917,174.213593 
	C343.037964,173.744720 340.428925,175.268951 342.446259,176.909027 
	C345.320068,179.245377 343.918396,181.374939 343.596222,183.504944 
	C342.785370,188.865723 341.593781,194.168915 340.554840,199.495193 
	C341.029510,199.824005 341.504150,200.152832 341.978790,200.481659 
	C342.963745,199.338226 344.444122,198.341553 344.834991,197.022125 
	C345.774139,193.851807 345.488434,190.136551 347.014954,187.367844 
	C348.979248,183.805115 351.696655,180.089981 355.059631,178.004990 
	C359.603088,175.188110 362.809814,177.837463 362.130646,183.191849 
	C361.566711,187.637329 360.627197,192.035172 359.808533,197.339249 
M284.524292,131.827866 
	C281.897827,131.872406 279.121582,131.381851 276.674469,132.066956 
	C270.585083,133.771759 266.840851,137.998093 265.693390,144.294632 
	C264.840424,148.975235 265.383667,153.394196 269.593079,156.340775 
	C274.279510,159.621338 279.367340,159.113708 284.209442,156.726715 
	C285.376801,156.151245 285.875885,154.220139 286.682281,152.912460 
	C283.506989,153.179352 281.607025,154.331284 279.554474,154.770859 
	C272.499878,156.281723 267.283508,151.078964 269.822021,144.373840 
	C271.138245,140.897247 274.437866,137.679993 277.647491,135.574036 
	C280.030151,134.010712 283.756500,134.054016 285.981171,137.432373 
	C286.532043,138.268906 287.571838,138.783478 288.386871,139.446045 
	C288.839020,138.154907 290.042786,136.384720 289.588196,135.671478 
	C288.615875,134.145950 286.785614,133.167221 284.524292,131.827866 
M388.334015,194.932846 
	C386.994812,195.579193 385.607941,196.847107 384.325867,196.748779 
	C381.189850,196.508240 376.915222,196.642334 375.311798,194.750275 
	C373.523468,192.640121 373.881439,188.454849 373.912384,185.178558 
	C373.925751,183.759949 375.256866,182.172028 376.338470,180.976913 
	C380.905426,175.930679 385.292999,176.107208 390.024475,181.118179 
	C390.402954,181.519043 392.901459,180.912521 393.131531,180.295609 
	C394.493591,176.642944 391.940247,175.171707 389.071716,174.269455 
	C381.054199,171.747681 372.355255,176.573288 369.796875,184.858582 
	C368.105682,190.335510 369.380493,195.760712 373.007843,198.523560 
	C376.954529,201.529648 384.243164,201.657516 388.609314,198.805069 
	C390.412994,197.626678 391.432892,196.373550 388.334015,194.932846 
M281.033813,187.492447 
	C280.513123,190.263657 279.823486,193.018158 279.547394,195.813507 
	C279.420898,197.094223 279.836182,199.408325 280.479340,199.591553 
	C282.068359,200.044296 283.930847,199.537216 285.683411,199.415878 
	C285.115479,198.346954 284.346710,197.332291 284.038879,196.193085 
	C283.758698,195.156235 283.819031,193.956238 284.006927,192.876465 
	C284.773712,188.470200 285.638336,184.080795 286.483643,179.688416 
	C287.235474,175.781616 288.174377,171.899933 288.672241,167.961853 
	C288.820221,166.791473 288.049683,164.732468 287.179688,164.385590 
	C285.849426,163.855164 284.067413,164.457748 282.477173,164.579361 
	C282.995331,165.651108 283.627045,166.685623 283.994843,167.806702 
	C284.275970,168.663574 284.442352,169.669998 284.283234,170.541138 
	C283.300751,175.920273 282.211487,181.279922 281.033813,187.492447 
M295.164520,178.625443 
	C294.057983,184.660675 292.859344,190.681931 291.938660,196.745377 
	C291.791046,197.717484 292.718109,199.630768 293.442810,199.792908 
	C294.884644,200.115494 296.531311,199.522720 298.093353,199.308121 
	C297.555756,198.392105 296.802612,197.534271 296.535553,196.545212 
	C296.207611,195.330627 296.027161,193.962524 296.235321,192.737656 
	C296.929749,188.651337 297.856720,184.605209 298.637115,180.532669 
	C299.479706,176.135498 300.382843,171.742401 300.965729,167.308884 
	C301.092834,166.342026 300.200531,164.605438 299.377014,164.298523 
	C298.145447,163.839508 296.538116,164.228287 295.139282,164.503723 
	C294.832581,164.564117 294.421753,166.111450 294.578949,166.219849 
	C299.747742,169.784164 295.045441,173.958862 295.164520,178.625443 
M298.737854,142.500977 
	C301.524261,140.187134 304.367737,137.937134 307.065491,135.524185 
	C307.987457,134.699554 308.543823,133.466095 309.267212,132.419418 
	C308.856232,131.982758 308.445251,131.546097 308.034271,131.109436 
	C305.150665,132.440109 302.267090,133.770782 299.383484,135.101456 
	C297.979431,133.363159 295.701080,131.643677 294.275757,132.182144 
	C290.233429,133.709305 294.293884,134.803085 294.805359,136.242905 
	C295.206268,137.371552 294.801636,138.845688 294.564880,140.131317 
	C293.499786,145.914261 292.366821,151.684738 291.258331,157.459702 
	C291.794647,157.758301 292.330933,158.056915 292.867218,158.355515 
	C293.786743,157.154175 295.136566,156.082077 295.543549,154.726822 
	C296.682281,150.935089 297.431213,147.026306 298.737854,142.500977 
M309.853088,196.964813 
	C309.455444,195.655640 308.566498,194.274704 308.745392,193.049744 
	C309.511627,187.803894 310.705872,182.620178 311.453583,177.372421 
	C311.587433,176.433014 310.554810,174.688324 309.695343,174.398285 
	C308.448151,173.977371 306.839813,174.430527 305.456360,174.786362 
	C305.201752,174.851883 304.993317,176.776215 305.253876,176.913727 
	C309.260254,179.028503 306.703644,182.061462 306.327881,184.657196 
	C305.735199,188.750839 304.591217,192.777786 304.224152,196.881607 
	C304.133911,197.890396 305.965942,199.676285 307.230835,200.059204 
	C309.125397,200.632736 311.507294,200.521286 309.853088,196.964813 
M188.544724,170.940918 
	C186.529999,174.558578 187.160751,177.593506 191.228958,178.760895 
	C192.689468,179.179977 195.575867,178.120071 196.254898,176.881653 
	C197.088120,175.362061 196.983154,171.699173 196.051971,171.182388 
	C194.153351,170.128708 191.429611,170.561768 188.544724,170.940918 
M424.895996,168.617050 
	C423.733856,172.180466 425.621185,173.534470 428.693787,173.017792 
	C430.252411,172.755707 432.490814,171.354645 432.830994,170.052811 
	C433.666687,166.854553 431.792938,164.444763 428.516998,164.090836 
	C426.288940,163.850113 423.508362,164.177887 424.895996,168.617050 
M214.867996,157.979843 
	C216.503799,157.233658 218.478073,156.812332 219.635132,155.606705 
	C220.229523,154.987366 219.771774,152.075607 219.079834,151.761124 
	C217.444321,151.017700 214.786758,150.363647 213.615540,151.191528 
	C210.879593,153.125473 211.668518,155.681931 214.867996,157.979843 
M227.259384,153.573318 
	C225.791489,154.705353 223.981720,155.619171 223.043457,157.089233 
	C222.720428,157.595337 224.346329,160.180359 225.492630,160.553299 
	C226.627686,160.922577 229.488083,159.697556 229.487076,159.175903 
	C229.483612,157.389008 228.555801,155.603897 227.259384,153.573318 
M230.981079,164.711380 
	C232.305649,165.796692 233.537766,167.067017 235.031631,167.813538 
	C235.335892,167.965607 237.156952,166.226669 237.308380,165.214294 
	C237.456039,164.227173 236.184738,162.068893 235.841080,162.130295 
	C234.196518,162.424118 232.655426,163.297180 230.981079,164.711380 
M235.569672,176.926788 
	C237.114975,176.599808 238.797714,176.521820 240.120499,175.791702 
	C240.509384,175.577072 240.288300,173.106796 239.599121,172.413208 
	C238.910614,171.720291 236.430542,171.493469 236.225494,171.871109 
	C235.499359,173.208527 235.410355,174.891876 235.569672,176.926788 
z"/>
<path fill="#FFFEFE" opacity="1.000000" stroke="none" 
	d="
M470.802185,464.338074 
	C435.809906,500.925659 393.309265,524.345825 343.257080,533.048523 
	C274.789398,544.953247 212.522873,529.785461 157.042938,487.867523 
	C147.928665,480.981232 139.906906,472.649017 131.112808,464.729034 
	C160.248184,461.025360 189.573685,456.449707 219.074188,454.429138 
	C252.420227,452.145203 285.925049,451.320923 319.357849,451.385834 
	C358.977905,451.462738 398.498230,454.518982 437.813080,459.709869 
	C448.698822,461.147125 459.569427,462.699036 470.802185,464.338074 
M302.775085,510.342896 
	C306.501709,500.967010 313.934540,495.659851 324.224640,492.055420 
	C312.195831,488.216949 304.643097,481.219269 301.194458,469.679474 
	C295.545044,481.917877 295.545044,481.917877 278.710266,492.481506 
	C289.937042,496.045471 297.514679,503.175323 301.028961,515.425354 
	C301.770081,513.160278 302.122650,512.082764 302.775085,510.342896 
z"/>
<path fill="#F4F4F6" opacity="1.000000" stroke="none" 
	d="
M241.296936,398.922089 
	C241.209473,395.802460 241.209473,393.154236 241.209473,390.485291 
	C241.414444,390.313293 241.627853,389.976013 241.869751,389.954132 
	C251.035248,389.125977 251.030197,389.131989 254.442932,397.802185 
	C255.515686,400.527496 256.626068,403.238007 258.202393,407.156189 
	C259.754150,402.111755 261.285889,398.357910 262.012787,394.454163 
	C262.889343,389.746582 265.436859,388.193176 269.889771,388.780884 
	C271.155151,388.947937 272.461243,388.806488 274.380981,388.806488 
	C274.380981,397.851135 274.380981,406.556396 274.380981,415.654083 
	C272.800659,415.725677 271.041199,415.805420 268.599609,415.916046 
	C268.319031,409.982697 268.050201,404.297791 267.781403,398.612854 
	C267.589172,398.545105 267.396973,398.477356 267.204773,398.409607 
	C265.846527,402.549988 264.057312,406.607697 263.242981,410.852478 
	C262.298309,415.776611 259.813782,417.146423 255.080429,415.798828 
	C252.920547,410.589294 250.699692,405.232666 248.478851,399.876007 
	C247.973602,399.996948 247.468353,400.117889 246.963104,400.238831 
	C247.362839,405.478790 247.762573,410.718750 248.194138,416.375946 
	C246.136810,416.582123 244.384109,416.757751 241.384415,417.058350 
	C241.384415,410.907013 241.384415,405.150269 241.296936,398.922089 
z"/>
<path fill="#F5F6F7" opacity="1.000000" stroke="none" 
	d="
M319.703247,414.782898 
	C314.989349,416.663849 312.438019,415.229187 311.293457,410.455200 
	C310.317352,406.383636 308.653656,402.476959 306.299988,398.699402 
	C306.299988,404.058716 306.299988,409.417999 306.299988,415.008240 
	C304.162964,415.008240 302.414490,415.008240 300.321411,415.008240 
	C300.321411,406.337799 300.321411,397.610718 300.321411,388.909271 
	C308.659668,386.982391 310.227020,387.773071 312.758179,395.192749 
	C313.934723,398.641541 315.045227,402.112793 316.514038,406.570404 
	C318.259491,401.833832 320.042847,398.018677 321.041809,394.008118 
	C322.135559,389.617096 324.476257,388.012421 328.814392,388.775543 
	C330.083801,388.998840 331.425690,388.809875 332.944214,388.809875 
	C332.944214,397.841248 332.944214,406.561676 332.944214,415.570770 
	C330.793091,415.570770 328.901917,415.570770 326.728333,415.570770 
	C326.728333,409.907379 326.728333,404.341553 326.728333,398.775726 
	C326.449646,398.677948 326.170990,398.580170 325.892303,398.482422 
	C323.901550,403.807892 321.910797,409.133392 319.703247,414.782898 
z"/>
<path fill="#F5F6F7" opacity="1.000000" stroke="none" 
	d="
M476.044617,400.948975 
	C480.269714,401.587250 484.044556,402.207153 487.825256,402.789093 
	C492.072174,403.442810 495.629028,405.068542 496.340088,409.816101 
	C497.052307,414.571075 494.920563,417.827423 490.049316,419.496460 
	C491.464386,423.241119 492.840607,426.882874 494.234192,430.570648 
	C488.307312,431.580505 485.378601,428.789886 484.182037,423.604095 
	C483.369202,420.081207 481.634583,417.918365 477.420807,419.134888 
	C476.901306,421.959106 476.367249,424.862335 475.760345,428.161560 
	C473.530273,427.851715 471.455170,427.563416 468.826019,427.198120 
	C470.123230,418.760315 471.317535,410.583313 472.749237,402.448090 
	C472.865051,401.790009 474.609375,401.418488 476.044617,400.948975 
M486.034912,414.666321 
	C486.994019,413.153473 487.953156,411.640625 488.912262,410.127777 
	C485.893768,408.707458 482.875305,407.287109 479.377472,405.641205 
	C478.816010,409.215363 478.491089,411.283630 478.130310,413.580261 
	C480.713318,414.018280 482.977814,414.402252 486.034912,414.666321 
z"/>
<path fill="#F2F2F4" opacity="1.000000" stroke="none" 
	d="
M118.302216,401.397217 
	C122.433823,402.154388 126.149094,402.953949 131.096588,404.018707 
	C128.764496,406.635590 127.615479,407.924896 127.031937,408.579712 
	C123.032578,407.990570 119.713638,407.162598 116.399643,407.181946 
	C115.090942,407.189514 113.793236,409.084473 112.490524,410.120026 
	C113.804253,410.869171 115.052864,412.074127 116.445190,412.273041 
	C119.388954,412.693604 122.590057,412.009216 125.340721,412.874451 
	C127.726006,413.624756 130.959579,415.574707 131.426865,417.557953 
	C132.036255,420.144165 131.158554,424.068359 129.388168,426.042328 
	C124.109459,431.928223 111.558853,431.275146 105.849106,425.234253 
	C107.296837,423.906097 108.741310,422.580933 110.185783,421.255737 
	C110.219200,421.766937 110.252609,422.278137 110.286018,422.789337 
	C114.170555,423.190277 118.055855,423.837524 121.939095,423.825348 
	C122.956047,423.822174 123.966568,421.771423 124.980042,420.661041 
	C123.813530,419.967072 122.706871,418.837830 121.468330,418.667511 
	C118.683479,418.284515 115.827446,418.457825 113.010979,418.256500 
	C109.108803,417.977539 106.453720,416.139496 105.700249,412.056458 
	C104.899025,407.714752 107.095207,404.950897 110.693382,403.316956 
	C112.916626,402.307434 115.476906,402.040131 118.302216,401.397217 
z"/>
<path fill="#F6F7F8" opacity="1.000000" stroke="none" 
	d="
M185.014084,393.942871 
	C186.314743,393.877991 187.147125,393.856842 187.978271,393.812134 
	C192.044617,393.593323 195.692932,394.246002 197.497955,398.538849 
	C199.105408,402.361877 198.017532,405.612183 193.767487,409.608124 
	C195.896866,412.674652 198.045502,415.768890 200.478745,419.273010 
	C195.552124,420.697571 191.943115,420.581970 189.484665,415.669830 
	C188.051559,412.806427 186.288666,409.438690 181.273590,411.879761 
	C181.475067,414.553894 181.705109,417.606903 181.978882,421.240326 
	C179.704956,421.514069 177.528824,421.776001 174.949249,422.086548 
	C174.084686,412.972015 173.259476,404.272491 172.397415,395.184235 
	C176.679672,394.758209 180.612457,394.366943 185.014084,393.942871 
M187.959305,405.857635 
	C188.731415,404.163177 189.503525,402.468750 190.275635,400.774261 
	C187.022812,399.991760 183.769974,399.209229 179.724014,398.235931 
	C180.165787,402.009583 180.424606,404.220367 180.645737,406.109314 
	C181.421844,406.418427 181.580917,406.544037 181.727188,406.530579 
	C183.546616,406.363220 185.364151,406.175598 187.959305,405.857635 
z"/>
<path fill="#F5F5F7" opacity="1.000000" stroke="none" 
	d="
M378.517944,395.924194 
	C384.275726,388.463470 396.753845,389.288300 402.963135,397.430115 
	C401.584991,398.510681 400.197449,399.598633 399.539520,400.114471 
	C395.581085,398.609161 392.257294,397.052185 388.761749,396.196777 
	C387.730469,395.944427 386.213959,397.674622 384.919800,398.496277 
	C385.943695,399.415649 386.821045,400.740570 388.020569,401.174194 
	C390.970551,402.240631 394.437775,402.305084 396.994629,403.899048 
	C399.176453,405.259308 401.176239,407.979797 401.827240,410.471954 
	C402.758118,414.035400 400.539215,416.788147 397.104340,418.279877 
	C390.694916,421.063477 378.171753,419.011841 375.186951,411.825043 
	C376.679810,410.827606 378.256439,409.774231 379.833069,408.720856 
	C379.769653,409.168457 379.706207,409.616028 379.642761,410.063599 
	C383.505127,411.367645 387.314270,412.903168 391.267487,413.811707 
	C392.246979,414.036835 393.693695,412.228973 394.925629,411.355591 
	C393.910431,410.412872 393.046051,409.097656 391.845886,408.611725 
	C389.871094,407.812103 387.664764,407.602478 385.580811,407.050659 
	C379.139008,405.344971 377.587860,403.012634 378.517944,395.924194 
z"/>
<path fill="#F1F2F4" opacity="1.000000" stroke="none" 
	d="
M440.574524,423.650330 
	C439.541931,422.791138 438.324402,421.949341 438.402191,421.252075 
	C439.300629,413.198669 440.395203,405.167145 441.515137,396.532471 
	C448.788818,397.375946 455.805298,398.189606 463.244812,399.052307 
	C463.151642,400.736542 463.065460,402.294250 462.956421,404.265656 
	C457.908661,403.727722 453.171539,403.222931 448.167755,402.689697 
	C447.873779,404.416412 447.607269,405.981781 447.295624,407.812195 
	C452.088806,408.493988 456.638611,409.141174 461.525909,409.836365 
	C461.263092,411.663116 461.060059,413.074188 460.827515,414.690582 
	C456.074280,414.146149 451.511841,413.623566 446.643982,413.065979 
	C446.395935,415.076111 446.181366,416.814911 445.934875,418.812134 
	C451.009705,419.510345 455.753876,420.163086 460.972687,420.881104 
	C460.836945,422.534515 460.710754,424.071747 460.552185,426.003113 
	C453.757599,425.215210 447.374420,424.475037 440.574524,423.650330 
z"/>
<path fill="#F4F5F6" opacity="1.000000" stroke="none" 
	d="
M149.476822,397.035828 
	C158.971161,396.443756 162.554855,398.290131 165.139725,405.092682 
	C161.896942,406.384979 159.155609,408.514130 156.006104,404.073608 
	C153.936111,401.155060 148.344711,402.340912 145.880096,405.395508 
	C143.091476,408.851624 143.829529,415.201263 147.348190,418.025635 
	C150.615097,420.647919 155.534775,420.147675 157.968918,416.852570 
	C158.636520,415.948822 158.993393,414.815521 159.680038,413.402283 
	C161.776001,413.613556 164.019348,413.839661 166.250290,414.064514 
	C165.714737,422.366119 158.333344,425.141510 151.583176,425.516815 
	C144.525528,425.909241 139.079483,422.008545 137.334869,415.544678 
	C135.377304,408.291901 138.061569,401.794373 144.386276,398.725800 
	C145.860214,398.010712 147.489304,397.615417 149.476822,397.035828 
z"/>
<path fill="#F4F4F6" opacity="1.000000" stroke="none" 
	d="
M232.551132,406.876160 
	C231.485397,415.635193 226.792282,419.356476 217.767838,419.017273 
	C210.135025,418.730316 206.344223,414.783356 205.823044,406.647644 
	C205.525726,402.006439 205.161072,397.369598 204.781219,392.099670 
	C207.070740,391.981628 209.146088,391.874634 211.806061,391.737518 
	C212.205780,396.570190 212.621902,401.298004 212.981445,406.030090 
	C213.366898,411.103302 215.315933,413.344360 219.386917,413.103638 
	C224.174942,412.820526 225.444260,409.805206 225.147415,405.544647 
	C224.824524,400.910217 224.618896,396.267639 224.330261,391.052734 
	C226.479965,390.819183 228.668030,390.581482 231.343384,390.290833 
	C231.764511,395.943939 232.156204,401.201782 232.551132,406.876160 
z"/>
<path fill="#F7F7F8" opacity="1.000000" stroke="none" 
	d="
M349.455017,395.410095 
	C350.707611,389.889740 354.212158,388.873596 358.777618,389.858643 
	C359.613983,390.039062 360.813507,390.514648 361.059113,391.155365 
	C364.297272,399.603516 367.394440,408.105682 370.630707,416.875671 
	C366.325226,417.410004 362.736755,418.034363 361.846680,412.772217 
	C361.727875,412.069794 360.174194,411.019623 359.408051,411.115356 
	C355.228790,411.637573 349.687042,407.910553 347.370544,415.111877 
	C347.035858,416.152222 342.955963,415.987762 339.492889,416.567841 
	C343.055573,408.971008 346.160156,402.351044 349.455017,395.410095 
M352.804260,403.416107 
	C352.857208,406.340088 353.357239,406.503357 359.467834,405.444061 
	C358.501373,402.447968 357.548279,399.493286 356.292114,395.599121 
	C354.920746,398.582977 353.979462,400.631012 352.804260,403.416107 
z"/>
<path fill="#F0F1F3" opacity="1.000000" stroke="none" 
	d="
M416.153748,409.125366 
	C416.502350,405.897095 416.819702,403.118652 417.192566,399.854156 
	C414.196686,399.446014 411.490540,399.077332 408.199677,398.628998 
	C408.311249,396.979706 408.426086,395.281799 408.574249,393.091949 
	C417.092682,393.912872 425.258789,394.699829 433.949249,395.537354 
	C433.793945,397.449829 433.657562,399.129639 433.518402,400.843842 
	C430.274506,400.843842 427.496979,400.843842 424.391968,400.843842 
	C423.682220,407.567444 422.973969,414.277283 422.216553,421.452637 
	C419.825623,421.264771 417.749634,421.101624 415.215546,420.902496 
	C415.524841,417.039459 415.823669,413.307343 416.153748,409.125366 
z"/>
<path fill="#1C2744" opacity="1.000000" stroke="none" 
	d="
M409.113373,266.091736 
	C402.923218,283.614014 396.733032,301.136261 390.489929,318.808472 
	C384.771240,318.808472 379.134399,318.808472 373.009003,318.808472 
	C369.849457,309.965729 366.614716,300.926422 363.389984,291.883606 
	C360.167786,282.847839 356.955627,273.808533 353.102600,264.817871 
	C353.102600,282.731964 353.102600,300.646057 353.102600,318.780426 
	C347.225159,318.780426 341.824066,318.780426 336.223816,318.780426 
	C336.223816,293.702606 336.223816,268.805084 336.223816,243.688843 
	C345.411865,243.688843 354.372467,243.688843 363.826477,243.688843 
	C369.811310,260.660065 375.860199,277.812897 382.142975,295.628937 
	C387.532257,280.128662 392.999054,265.328369 397.731750,250.296921 
	C399.405212,244.981857 401.542633,242.805298 407.303986,243.326660 
	C414.065552,243.938553 420.924927,243.469925 428.134491,243.469925 
	C428.134491,268.637604 428.134491,293.522491 428.134491,318.708435 
	C422.448212,318.708435 416.716827,318.708435 410.574890,318.708435 
	C410.574890,301.378937 410.574890,284.089050 410.821228,266.058441 
	C410.998322,264.600800 410.929077,263.883881 410.859833,263.166992 
	C410.608948,263.145081 410.358032,263.123138 410.107147,263.101227 
	C409.775879,264.098053 409.444611,265.094910 409.113373,266.091736 
z"/>
<path fill="#1C2744" opacity="1.000000" stroke="none" 
	d="
M319.625488,262.633606 
	C317.679779,264.230347 316.005707,265.592255 313.928802,267.281921 
	C306.971466,257.778961 297.217346,254.940994 285.994385,255.881454 
	C285.165253,255.950943 284.315826,255.958252 283.514862,256.154053 
	C279.464081,257.144379 275.446655,258.658752 275.364624,263.533081 
	C275.285614,268.227356 279.181854,269.982239 283.037567,270.741150 
	C291.349182,272.377167 299.795471,273.352325 308.076263,275.116119 
	C319.865509,277.627197 325.278412,283.487152 326.238007,293.880371 
	C327.232941,304.656433 322.221252,313.002350 311.644196,317.399872 
	C308.002228,318.914062 304.061005,320.080048 300.156219,320.524597 
	C285.271881,322.219147 270.826935,321.187256 258.520508,311.295502 
	C255.763199,309.079224 253.614365,306.105865 250.841858,303.109802 
	C256.163055,299.374298 260.744354,296.158203 265.485413,292.829987 
	C273.200134,304.456665 284.239319,307.767273 297.271851,306.012085 
	C299.207855,305.751343 301.574493,305.439270 302.839935,304.217072 
	C304.696411,302.424011 306.902100,299.734711 306.799438,297.527740 
	C306.698456,295.355743 304.290863,292.104156 302.218384,291.440521 
	C296.731659,289.683655 290.853973,289.185852 285.178650,287.968781 
	C279.680115,286.789581 273.932648,286.055420 268.833160,283.869293 
	C255.005722,277.941498 252.267593,258.521088 263.577087,249.093567 
	C277.746002,237.282455 310.916809,239.441910 323.346588,253.006866 
	C324.344177,254.095566 325.176941,255.335297 326.337311,256.827698 
	C324.115570,258.749603 322.006378,260.574188 319.625488,262.633606 
z"/>
<path fill="#1C2743" opacity="1.000000" stroke="none" 
	d="
M245.761627,303.615173 
	C234.566574,320.333496 218.205917,323.010315 200.559967,320.394196 
	C178.873108,317.178986 166.608948,301.793091 167.479736,280.545319 
	C168.383957,258.482056 182.270264,243.860138 204.103104,241.829514 
	C212.856186,241.015411 221.412384,241.609528 229.570114,245.043274 
	C240.225555,249.528320 246.950073,257.294769 249.308273,269.270264 
	C242.553253,270.476379 236.234482,271.604614 229.973053,272.722626 
	C223.790344,258.636536 214.995758,254.040863 202.216629,258.065216 
	C201.110687,258.413483 200.010025,258.837677 198.985519,259.376190 
	C188.717285,264.773193 184.576324,281.003235 190.251511,293.509460 
	C194.911591,303.778748 206.846008,308.393372 218.151474,304.341217 
	C224.529388,302.055267 227.823685,297.104492 229.820297,290.495422 
	C233.155197,291.130768 236.367569,291.695984 239.558395,292.364044 
	C242.635559,293.008270 245.690475,293.758698 249.633499,294.664154 
	C248.330887,297.719177 247.141708,300.508148 245.761627,303.615173 
z"/>
<path fill="#2B3550" opacity="1.000000" stroke="none" 
	d="
M380.299072,143.330261 
	C379.769135,146.205490 379.255707,148.646805 378.969055,151.114456 
	C378.855011,152.095886 379.141205,153.165787 379.430023,154.140640 
	C379.741302,155.191483 380.269073,156.178177 380.702393,157.192856 
	C379.111115,157.367538 377.428619,157.917068 375.966400,157.561310 
	C375.217194,157.379028 374.288757,155.495834 374.428223,154.522766 
	C375.016174,150.419830 376.295715,146.399323 376.670471,142.289246 
	C376.871552,140.083679 376.252411,136.188309 375.118286,135.825989 
	C373.021545,135.156143 369.824127,135.857864 367.881958,137.168732 
	C362.182770,141.015366 362.018494,147.578796 360.906647,153.591888 
	C360.163544,157.610672 360.143677,157.606995 356.375336,157.303055 
	C357.344574,151.917679 358.488678,146.577469 359.172699,141.178986 
	C359.395752,139.418518 358.883270,136.305511 357.891632,135.922485 
	C356.041748,135.207947 353.272614,135.415298 351.458710,136.350159 
	C346.792603,138.755066 345.196869,143.388596 344.310242,148.272141 
	C343.895447,150.556992 343.693237,152.914490 342.964172,155.095123 
	C342.547333,156.342041 341.265503,157.299759 340.373108,158.387680 
	C339.859558,158.091370 339.345978,157.795059 338.832428,157.498749 
	C339.952911,151.366028 341.102448,145.238342 342.166260,139.095795 
	C342.350922,138.029510 342.610565,136.297836 342.080811,135.913361 
	C340.491913,134.760117 338.408325,133.602081 341.288879,132.325165 
	C342.615356,131.737152 345.006683,133.475769 346.871246,134.263412 
	C347.132751,134.373871 347.142670,135.079880 347.279846,135.547028 
	C355.319855,129.506165 360.215057,129.716080 363.765106,136.358704 
	C368.078888,132.860336 372.586884,128.990417 378.421143,132.471512 
	C382.504913,134.908142 381.056610,139.159744 380.299072,143.330261 
z"/>
<path fill="#29334E" opacity="1.000000" stroke="none" 
	d="
M261.204437,169.123016 
	C263.011108,166.603958 263.361694,162.646347 268.225586,164.425400 
	C269.796570,173.262131 271.384735,182.389267 273.071167,191.498215 
	C273.364716,193.083740 274.075195,194.591751 274.588623,196.137054 
	C274.919098,197.131668 275.525391,198.157822 275.428680,199.111069 
	C275.389557,199.496902 273.666046,200.158234 272.962128,199.926224 
	C271.892120,199.573593 270.482513,198.717773 270.205688,197.782944 
	C269.412231,195.103699 269.115906,192.277237 268.514679,188.892212 
	C264.437164,188.892212 260.073090,188.057190 256.307312,189.197723 
	C253.956665,189.909668 252.235855,193.441422 250.726532,195.999329 
	C248.933029,199.038818 247.060593,201.137222 243.770477,199.801666 
	C249.505402,189.710129 255.263275,179.578232 261.204437,169.123016 
M267.692352,182.894211 
	C266.924225,178.817551 266.156097,174.740906 265.168091,169.497330 
	C261.976318,175.317856 259.419800,179.979919 256.105164,186.024536 
	C260.966125,185.086563 264.405426,184.422913 267.692352,182.894211 
z"/>
<path fill="#29334E" opacity="1.000000" stroke="none" 
	d="
M238.517166,151.821716 
	C239.325912,149.833237 240.151016,148.218033 240.976120,146.602829 
	C241.415894,146.820190 241.855682,147.037552 242.295471,147.254913 
	C243.076401,154.065216 248.150024,157.033203 254.062576,153.616364 
	C256.028137,152.480469 257.959503,149.661407 258.098602,147.495743 
	C258.212738,145.718933 255.943665,143.394714 254.185043,142.003006 
	C252.428543,140.612991 249.933838,140.198166 247.867477,139.149506 
	C241.473618,135.904694 240.749847,128.622330 246.308960,124.087502 
	C250.448639,120.710533 258.606354,119.850960 262.713440,122.909561 
	C264.070251,123.919998 264.701782,126.393715 264.891632,128.276352 
	C264.987244,129.224640 263.352844,130.347351 262.039795,131.955811 
	C260.354156,125.138519 256.261719,122.963295 251.093552,125.730942 
	C249.199631,126.745171 247.204803,129.240021 247.011337,131.230087 
	C246.857819,132.809387 249.102036,135.026398 250.790085,136.270248 
	C252.604752,137.607391 255.083389,138.000504 257.147034,139.051514 
	C261.651215,141.345505 263.281403,145.033615 262.096680,149.781082 
	C260.851532,154.770660 255.833664,158.244400 249.502579,158.499634 
	C243.720703,158.732697 240.128738,156.668167 238.517166,151.821716 
z"/>
<path fill="#303953" opacity="1.000000" stroke="none" 
	d="
M403.991211,187.614075 
	C401.873413,187.614044 400.254608,187.614044 398.670654,187.614044 
	C398.169006,197.079071 403.429810,199.261414 415.823975,194.142807 
	C414.917908,196.291824 414.755676,197.856995 413.899323,198.505386 
	C409.986908,201.467728 402.758728,201.476791 398.752869,198.793259 
	C394.949554,196.245407 393.510437,191.525848 394.807312,185.854034 
	C396.293671,179.353668 401.383820,174.423737 407.229401,173.822998 
	C416.281708,172.892670 420.512085,178.185852 417.622559,187.614105 
	C413.373962,187.614105 408.932037,187.614105 403.991211,187.614075 
M410.983948,177.079224 
	C405.427124,176.233109 401.982849,178.909439 399.252899,184.059540 
	C404.779175,184.059540 409.708282,184.059540 416.188080,184.059540 
	C414.251129,181.136826 412.995300,179.241913 410.983948,177.079224 
z"/>
<path fill="#29334E" opacity="1.000000" stroke="none" 
	d="
M332.224915,174.154282 
	C336.745483,176.088150 337.341949,179.525940 336.722382,183.412567 
	C336.201385,186.680740 335.464569,189.913971 334.883759,193.173447 
	C334.718201,194.102570 334.359619,195.371185 334.796478,195.955917 
	C335.705566,197.172562 338.925385,197.925430 336.188171,199.675598 
	C334.437347,200.795059 331.234650,200.976562 330.065002,197.651474 
	C330.020905,197.526093 329.822479,197.455002 329.986450,197.579941 
	C327.749481,198.613617 325.753662,199.893219 323.572327,200.465530 
	C319.654449,201.493454 316.059692,200.502121 314.446594,196.527771 
	C312.895325,192.705688 314.071533,188.786423 317.811462,187.184219 
	C322.418671,185.210480 327.516449,184.381851 332.653046,182.990372 
	C333.310608,178.465897 332.107880,176.400314 327.831085,177.062607 
	C324.957245,177.507645 322.324585,179.510193 319.360199,180.922531 
	C318.192841,177.308975 320.044037,175.283539 322.987915,174.605377 
	C325.825409,173.951721 328.867615,174.186707 332.224915,174.154282 
M330.250122,187.047623 
	C326.905731,187.815323 323.423889,188.245453 320.286987,189.522675 
	C319.090637,190.009781 318.195465,192.408188 318.095367,193.994370 
	C318.031189,195.011673 319.750793,197.099808 320.530640,197.034485 
	C322.984680,196.828949 326.107178,196.532471 327.600128,194.965332 
	C329.468506,193.004135 329.976959,189.747391 330.250122,187.047623 
z"/>
<path fill="#29334E" opacity="1.000000" stroke="none" 
	d="
M332.030701,135.074554 
	C332.984406,133.666138 333.877258,132.663986 334.770081,131.661835 
	C335.241638,131.911911 335.713196,132.161987 336.184753,132.412079 
	C335.063995,138.534927 333.918182,144.653412 332.846130,150.784775 
	C332.658600,151.857422 332.314575,153.454529 332.855042,153.990799 
	C334.079010,155.205215 336.582489,156.251816 333.798798,157.635849 
	C332.548401,158.257523 330.056213,156.453827 328.171600,155.647644 
	C327.898102,155.530624 327.871704,154.835938 327.937805,155.036697 
	C324.635468,156.231216 321.499176,157.985825 318.190765,158.415787 
	C313.331696,159.047287 310.598480,156.246902 310.870850,151.294571 
	C311.079285,147.504303 312.077515,143.762619 312.592834,139.981400 
	C312.784851,138.572739 312.763611,137.087799 312.541779,135.684708 
	C312.360291,134.536774 311.736542,133.458755 311.308868,132.349731 
	C312.767792,132.251556 314.452789,131.668854 315.613190,132.210373 
	C316.521393,132.634232 317.338348,134.508942 317.221985,135.638748 
	C316.865570,139.099670 315.872314,142.491730 315.448212,145.949997 
	C315.087341,148.893097 313.095673,153.097488 317.170227,154.154724 
	C319.722382,154.816940 323.556458,153.173920 325.920532,151.383636 
	C331.025574,147.517654 330.678009,141.083466 332.030701,135.074554 
z"/>
<path fill="#2B354F" opacity="1.000000" stroke="none" 
	d="
M359.831299,196.896683 
	C360.627197,192.035172 361.566711,187.637329 362.130646,183.191849 
	C362.809814,177.837463 359.603088,175.188110 355.059631,178.004990 
	C351.696655,180.089981 348.979248,183.805115 347.014954,187.367844 
	C345.488434,190.136551 345.774139,193.851807 344.834991,197.022125 
	C344.444122,198.341553 342.963745,199.338226 341.978790,200.481659 
	C341.504150,200.152832 341.029510,199.824005 340.554840,199.495193 
	C341.593781,194.168915 342.785370,188.865723 343.596222,183.504944 
	C343.918396,181.374939 345.320068,179.245377 342.446259,176.909027 
	C340.428925,175.268951 343.037964,173.744720 345.026917,174.213593 
	C346.620667,174.589279 348.007507,175.842682 349.441681,176.680573 
	C352.422729,175.816742 355.879059,174.243958 359.448425,173.921082 
	C364.233795,173.488251 366.672546,176.109329 366.352234,180.846619 
	C366.107269,184.469772 364.939423,188.027466 364.646973,191.651794 
	C364.506714,193.390305 365.461975,195.211060 365.881195,197.003906 
	C366.049408,197.723343 366.444855,198.881363 366.152863,199.117462 
	C365.482391,199.659592 364.257690,200.217392 363.609924,199.941757 
	C362.224487,199.352234 361.062225,198.238342 359.831299,196.896683 
z"/>
<path fill="#2C3651" opacity="1.000000" stroke="none" 
	d="
M284.915527,131.896179 
	C286.785614,133.167221 288.615875,134.145950 289.588196,135.671478 
	C290.042786,136.384720 288.839020,138.154907 288.386871,139.446045 
	C287.571838,138.783478 286.532043,138.268906 285.981171,137.432373 
	C283.756500,134.054016 280.030151,134.010712 277.647491,135.574036 
	C274.437866,137.679993 271.138245,140.897247 269.822021,144.373840 
	C267.283508,151.078964 272.499878,156.281723 279.554474,154.770859 
	C281.607025,154.331284 283.506989,153.179352 286.682281,152.912460 
	C285.875885,154.220139 285.376801,156.151245 284.209442,156.726715 
	C279.367340,159.113708 274.279510,159.621338 269.593079,156.340775 
	C265.383667,153.394196 264.840424,148.975235 265.693390,144.294632 
	C266.840851,137.998093 270.585083,133.771759 276.674469,132.066956 
	C279.121582,131.381851 281.897827,131.872406 284.915527,131.896179 
z"/>
<path fill="#2A344F" opacity="1.000000" stroke="none" 
	d="
M388.703979,194.830292 
	C391.432892,196.373550 390.412994,197.626678 388.609314,198.805069 
	C384.243164,201.657516 376.954529,201.529648 373.007843,198.523560 
	C369.380493,195.760712 368.105682,190.335510 369.796875,184.858582 
	C372.355255,176.573288 381.054199,171.747681 389.071716,174.269455 
	C391.940247,175.171707 394.493591,176.642944 393.131531,180.295609 
	C392.901459,180.912521 390.402954,181.519043 390.024475,181.118179 
	C385.292999,176.107208 380.905426,175.930679 376.338470,180.976913 
	C375.256866,182.172028 373.925751,183.759949 373.912384,185.178558 
	C373.881439,188.454849 373.523468,192.640121 375.311798,194.750275 
	C376.915222,196.642334 381.189850,196.508240 384.325867,196.748779 
	C385.607941,196.847107 386.994812,195.579193 388.703979,194.830292 
z"/>
<path fill="#2A344E" opacity="1.000000" stroke="none" 
	d="
M281.095764,187.069244 
	C282.211487,181.279922 283.300751,175.920273 284.283234,170.541138 
	C284.442352,169.669998 284.275970,168.663574 283.994843,167.806702 
	C283.627045,166.685623 282.995331,165.651108 282.477173,164.579361 
	C284.067413,164.457748 285.849426,163.855164 287.179688,164.385590 
	C288.049683,164.732468 288.820221,166.791473 288.672241,167.961853 
	C288.174377,171.899933 287.235474,175.781616 286.483643,179.688416 
	C285.638336,184.080795 284.773712,188.470200 284.006927,192.876465 
	C283.819031,193.956238 283.758698,195.156235 284.038879,196.193085 
	C284.346710,197.332291 285.115479,198.346954 285.683411,199.415894 
	C283.930847,199.537216 282.068359,200.044296 280.479340,199.591553 
	C279.836182,199.408325 279.420898,197.094223 279.547394,195.813507 
	C279.823486,193.018158 280.513123,190.263657 281.095764,187.069244 
z"/>
<path fill="#28324D" opacity="1.000000" stroke="none" 
	d="
M295.256226,178.209030 
	C295.045441,173.958862 299.747742,169.784164 294.578949,166.219849 
	C294.421753,166.111450 294.832581,164.564117 295.139282,164.503723 
	C296.538116,164.228287 298.145447,163.839508 299.377014,164.298523 
	C300.200531,164.605438 301.092834,166.342026 300.965729,167.308884 
	C300.382843,171.742401 299.479706,176.135498 298.637115,180.532669 
	C297.856720,184.605209 296.929749,188.651337 296.235321,192.737656 
	C296.027161,193.962524 296.207611,195.330627 296.535553,196.545212 
	C296.802612,197.534271 297.555756,198.392105 298.093353,199.308121 
	C296.531311,199.522720 294.884644,200.115494 293.442810,199.792908 
	C292.718109,199.630768 291.791046,197.717484 291.938660,196.745377 
	C292.859344,190.681931 294.057983,184.660675 295.256226,178.209030 
z"/>
<path fill="#28334E" opacity="1.000000" stroke="none" 
	d="
M298.535889,142.832336 
	C297.431213,147.026306 296.682281,150.935089 295.543549,154.726822 
	C295.136566,156.082077 293.786743,157.154175 292.867218,158.355515 
	C292.330933,158.056915 291.794647,157.758301 291.258331,157.459702 
	C292.366821,151.684738 293.499786,145.914261 294.564880,140.131317 
	C294.801636,138.845688 295.206268,137.371552 294.805359,136.242905 
	C294.293884,134.803085 290.233429,133.709305 294.275757,132.182144 
	C295.701080,131.643677 297.979431,133.363159 299.383484,135.101456 
	C302.267090,133.770782 305.150665,132.440109 308.034271,131.109436 
	C308.445251,131.546097 308.856232,131.982758 309.267212,132.419418 
	C308.543823,133.466095 307.987457,134.699554 307.065491,135.524185 
	C304.367737,137.937134 301.524261,140.187134 298.535889,142.832336 
z"/>
<path fill="#2C3650" opacity="1.000000" stroke="none" 
	d="
M310.255066,197.082703 
	C311.507294,200.521286 309.125397,200.632736 307.230835,200.059204 
	C305.965942,199.676285 304.133911,197.890396 304.224152,196.881607 
	C304.591217,192.777786 305.735199,188.750839 306.327881,184.657196 
	C306.703644,182.061462 309.260254,179.028503 305.253876,176.913727 
	C304.993317,176.776215 305.201752,174.851883 305.456360,174.786362 
	C306.839813,174.430527 308.448151,173.977371 309.695343,174.398285 
	C310.554810,174.688324 311.587433,176.433014 311.453583,177.372421 
	C310.705872,182.620178 309.511627,187.803894 308.745392,193.049744 
	C308.566498,194.274704 309.455444,195.655640 310.255066,197.082703 
z"/>
<path fill="#242E49" opacity="1.000000" stroke="none" 
	d="
M188.795258,170.661621 
	C191.429611,170.561768 194.153351,170.128708 196.051971,171.182388 
	C196.983154,171.699173 197.088120,175.362061 196.254898,176.881653 
	C195.575867,178.120071 192.689468,179.179977 191.228958,178.760895 
	C187.160751,177.593506 186.529999,174.558578 188.795258,170.661621 
z"/>
<path fill="#252F4B" opacity="1.000000" stroke="none" 
	d="
M200.926178,160.016068 
	C201.012741,160.839478 201.131958,161.660980 201.180145,162.486633 
	C201.384644,165.989044 199.555023,168.322220 196.264008,167.589355 
	C194.553177,167.208359 192.271866,164.371704 192.228470,162.595947 
	C192.145706,159.208572 194.853851,157.917999 198.187683,158.747147 
	C198.945679,158.935669 199.601624,159.534653 200.642654,159.990540 
	C200.980774,160.036362 200.926193,160.016068 200.926178,160.016068 
z"/>
<path fill="#676E81" opacity="1.000000" stroke="none" 
	d="
M424.800842,168.257050 
	C423.508362,164.177887 426.288940,163.850113 428.516998,164.090836 
	C431.792938,164.444763 433.666687,166.854553 432.830994,170.052811 
	C432.490814,171.354645 430.252411,172.755707 428.693787,173.017792 
	C425.621185,173.534470 423.733856,172.180466 424.800842,168.257050 
z"/>
<path fill="#252F4A" opacity="1.000000" stroke="none" 
	d="
M200.990051,160.063965 
	C200.986969,159.112320 200.724991,158.050705 201.015244,157.171356 
	C201.584732,155.446213 202.050156,153.186722 203.338303,152.352997 
	C204.417114,151.654770 207.335938,152.090820 208.117905,153.075027 
	C209.096100,154.306244 209.476898,157.074677 208.713547,158.320435 
	C207.987503,159.505341 205.483505,159.720749 203.704208,160.079697 
	C203.018143,160.218109 202.174896,159.577469 201.164734,159.653915 
	C200.926193,160.016068 200.980774,160.036362 200.990051,160.063965 
z"/>
<path fill="#222D48" opacity="1.000000" stroke="none" 
	d="
M214.494019,157.838531 
	C211.668518,155.681931 210.879593,153.125473 213.615540,151.191528 
	C214.786758,150.363647 217.444321,151.017700 219.079834,151.761124 
	C219.771774,152.075607 220.229523,154.987366 219.635132,155.606705 
	C218.478073,156.812332 216.503799,157.233658 214.494019,157.838531 
z"/>
<path fill="#222D48" opacity="1.000000" stroke="none" 
	d="
M227.619934,153.695709 
	C228.555801,155.603897 229.483612,157.389008 229.487076,159.175903 
	C229.488083,159.697556 226.627686,160.922577 225.492630,160.553299 
	C224.346329,160.180359 222.720428,157.595337 223.043457,157.089233 
	C223.981720,155.619171 225.791489,154.705353 227.619934,153.695709 
z"/>
<path fill="#2C3650" opacity="1.000000" stroke="none" 
	d="
M231.029312,164.337891 
	C232.655426,163.297180 234.196518,162.424118 235.841080,162.130295 
	C236.184738,162.068893 237.456039,164.227173 237.308380,165.214294 
	C237.156952,166.226669 235.335892,167.965607 235.031631,167.813538 
	C233.537766,167.067017 232.305649,165.796692 231.029312,164.337891 
z"/>
<path fill="#2E3852" opacity="1.000000" stroke="none" 
	d="
M235.324783,176.685455 
	C235.410355,174.891876 235.499359,173.208527 236.225494,171.871109 
	C236.430542,171.493469 238.910614,171.720291 239.599121,172.413208 
	C240.288300,173.106796 240.509384,175.577072 240.120499,175.791702 
	C238.797714,176.521820 237.114975,176.599808 235.324783,176.685455 
z"/>
<path fill="#2E3852" opacity="1.000000" stroke="none" 
	d="
M206.985306,127.071106 
	C208.715042,126.705421 210.444794,126.339737 212.174530,125.974045 
	C212.045456,127.696625 211.916367,129.419205 211.884659,131.497375 
	C211.982025,131.852966 212.055466,131.802872 212.055466,131.802872 
	C210.163620,130.748383 206.758789,131.492264 207.102036,127.351402 
	C207.030334,127.006958 206.985306,127.071098 206.985306,127.071106 
z"/>
<path fill="#232E49" opacity="1.000000" stroke="none" 
	d="
M211.955246,131.888458 
	C213.552414,132.430267 215.344894,132.684113 216.702194,133.589981 
	C217.134369,133.878403 216.812332,136.299637 216.101166,137.015640 
	C215.393951,137.727646 213.763794,137.522949 212.538361,137.720230 
	C212.300034,136.001953 212.061722,134.283661 211.939423,132.184128 
	C212.055466,131.802872 211.982025,131.852966 211.955246,131.888458 
z"/>
<path fill="#2E3852" opacity="1.000000" stroke="none" 
	d="
M207.063965,126.986847 
	C206.804474,126.910736 206.436356,126.711990 206.229645,126.820541 
	C203.887848,128.050339 201.915665,127.781090 201.505402,124.951973 
	C201.380692,124.091965 202.958679,122.217812 203.903214,122.111748 
	C206.914978,121.773529 207.334717,123.818832 206.868576,126.673965 
	C206.985306,127.071098 207.030334,127.006958 207.063965,126.986847 
z"/>
<path fill="#8F95A2" opacity="1.000000" stroke="none" 
	d="
M409.525940,266.056702 
	C409.444611,265.094910 409.775879,264.098053 410.107147,263.101227 
	C410.358032,263.123138 410.608948,263.145081 410.859833,263.166992 
	C410.929077,263.883881 410.998322,264.600800 410.909332,265.589844 
	C410.480255,265.915253 410.209381,265.968475 409.525940,266.056702 
z"/>
<path fill="#FAAC07" opacity="1.000000" stroke="none" 
	d="
M302.625122,510.674072 
	C302.122650,512.082764 301.770081,513.160278 301.028961,515.425354 
	C297.514679,503.175323 289.937042,496.045471 278.710266,492.481506 
	C295.545044,481.917877 295.545044,481.917877 301.194458,469.679474 
	C304.643097,481.219269 312.195831,488.216949 324.224640,492.055420 
	C313.934540,495.659851 306.501709,500.967010 302.625122,510.674072 
z"/>
<path fill="#27324D" opacity="1.000000" stroke="none" 
	d="
M485.638611,414.726257 
	C482.977814,414.402252 480.713318,414.018280 478.130310,413.580261 
	C478.491089,411.283630 478.816010,409.215363 479.377472,405.641205 
	C482.875305,407.287109 485.893768,408.707458 488.912262,410.127777 
	C487.953156,411.640625 486.994019,413.153473 485.638611,414.726257 
z"/>
<path fill="#27324D" opacity="1.000000" stroke="none" 
	d="
M187.570740,405.925415 
	C185.364151,406.175598 183.546616,406.363220 181.727188,406.530579 
	C181.580917,406.544037 181.421844,406.418427 180.645737,406.109314 
	C180.424606,404.220367 180.165787,402.009583 179.724014,398.235931 
	C183.769974,399.209229 187.022812,399.991760 190.275635,400.774292 
	C189.503525,402.468750 188.731415,404.163177 187.570740,405.925415 
z"/>
<path fill="#2F3953" opacity="1.000000" stroke="none" 
	d="
M352.921234,403.047577 
	C353.979462,400.631012 354.920746,398.582977 356.292114,395.599121 
	C357.548279,399.493286 358.501373,402.447968 359.467834,405.444061 
	C353.357239,406.503357 352.857208,406.340088 352.921234,403.047577 
z"/>
<path fill="#F2F3F4" opacity="1.000000" stroke="none" 
	d="
M267.768555,183.326736 
	C264.405426,184.422913 260.966125,185.086563 256.105164,186.024536 
	C259.419800,179.979919 261.976318,175.317856 265.168091,169.497330 
	C266.156097,174.740906 266.924225,178.817551 267.768555,183.326736 
z"/>
<path fill="#E8E9EC" opacity="1.000000" stroke="none" 
	d="
M411.361725,177.213104 
	C412.995300,179.241913 414.251129,181.136826 416.188080,184.059540 
	C409.708282,184.059540 404.779175,184.059540 399.252899,184.059540 
	C401.982849,178.909439 405.427124,176.233109 411.361725,177.213104 
z"/>
<path fill="#F3F4F5" opacity="1.000000" stroke="none" 
	d="
M330.661285,187.048767 
	C329.976959,189.747391 329.468506,193.004135 327.600128,194.965332 
	C326.107178,196.532471 322.984680,196.828949 320.530640,197.034485 
	C319.750793,197.099808 318.031189,195.011673 318.095367,193.994370 
	C318.195465,192.408188 319.090637,190.009781 320.286987,189.522675 
	C323.423889,188.245453 326.905731,187.815323 330.661285,187.048767 
z"/>
</svg>