<svg t="1716624315834" class="icon" viewBox="0 0 1024 1024" version="1.1" xmlns="http://www.w3.org/2000/svg" p-id="39140" width="200" height="200"><path d="M113.777778 654.222222c-45.511111 0-85.333333-39.822222-85.333334-85.333333V113.777778C28.444444 68.266667 68.266667 28.444444 113.777778 28.444444h455.111111c45.511111 0 85.333333 39.822222 85.333333 85.333334v455.111111c0 45.511111-39.822222 85.333333-85.333333 85.333333H113.777778z" fill="#3089D5" opacity=".2" p-id="39141"></path><path d="M455.111111 995.555556c-45.511111 0-85.333333-39.822222-85.333333-85.333334V455.111111c0-45.511111 39.822222-85.333333 85.333333-85.333333h455.111111c45.511111 0 85.333333 39.822222 85.333334 85.333333v455.111111c0 45.511111-39.822222 85.333333-85.333334 85.333334H455.111111z" fill="#3089D5" opacity=".2" p-id="39142"></path><path d="M910.222222 341.333333h-227.555555V113.777778c0-62.577778-51.2-113.777778-113.777778-113.777778H113.777778C51.2 0 0 51.2 0 113.777778v455.111111c0 62.577778 51.2 113.777778 113.777778 113.777778h227.555555v227.555555c0 62.577778 51.2 113.777778 113.777778 113.777778h455.111111c62.577778 0 113.777778-51.2 113.777778-113.777778V455.111111c0-62.577778-51.2-113.777778-113.777778-113.777778zM113.777778 625.777778c-34.133333 0-56.888889-22.755556-56.888889-56.888889V113.777778c0-34.133333 22.755556-56.888889 56.888889-56.888889h455.111111c34.133333 0 56.888889 22.755556 56.888889 56.888889v227.555555H455.111111c-62.577778 0-113.777778 51.2-113.777778 113.777778v170.666667H113.777778z m512-227.555556v170.666667c0 34.133333-22.755556 56.888889-56.888889 56.888889H398.222222V455.111111c0-34.133333 22.755556-56.888889 56.888889-56.888889h170.666667z m341.333333 512c0 34.133333-22.755556 56.888889-56.888889 56.888889H455.111111c-34.133333 0-56.888889-22.755556-56.888889-56.888889v-227.555555h170.666667c62.577778 0 113.777778-51.2 113.777778-113.777778V398.222222h227.555555c34.133333 0 56.888889 22.755556 56.888889 56.888889v455.111111z" fill="#3089D5" p-id="39143"></path></svg>
