<svg t="1682314233181" class="icon" viewBox="0 0 1024 1024" version="1.1" xmlns="http://www.w3.org/2000/svg" p-id="7056" width="200" height="200"><path d="M820.5312 158.2592H371.2c-55.296 0-100.096 44.8-100.096 100.096v96.6144a34.4064 34.4064 0 0 1-15.8208 28.9792L113.3056 475.136c-18.7904 12.0832-30.208 32.9216-30.208 55.2448v199.3728c0 36.3008 29.3888 65.6896 65.6896 65.6896h20.6336c0-0.3072-0.0512-0.5632-0.0512-0.8704 0-68.864 55.808-124.672 124.672-124.672s124.672 55.808 124.672 124.672c0 0.3072-0.0512 0.5632-0.0512 0.8704h184.32c0-0.3072-0.0512-0.5632-0.0512-0.8704 0-68.864 55.808-124.672 124.672-124.672 68.864 0 124.672 55.808 124.672 124.672v0.4096c38.4512-4.1472 68.4032-36.7104 68.4032-76.288v-460.288c-0.0512-55.296-44.9024-100.1472-100.1472-100.1472zM412.7744 576.512c0 28.2624-22.9888 51.2-51.2 51.2H247.2448c-23.1936 0-41.9328-18.7904-41.9328-41.9328s18.7904-41.9328 41.9328-41.9328h81.6128V491.3664c0-23.1936 18.7904-41.9328 41.9328-41.9328s41.9328 18.7904 41.9328 41.9328v85.1456z" fill="#0d9488" p-id="7057"></path><path d="M294.0416 794.5728m-86.4768 0a86.4768 86.4768 0 1 0 172.9536 0 86.4768 86.4768 0 1 0-172.9536 0Z" fill="#0d9488" p-id="7058"></path><path d="M727.3472 794.5728m-86.4768 0a86.4768 86.4768 0 1 0 172.9536 0 86.4768 86.4768 0 1 0-172.9536 0Z" fill="#0d9488" p-id="7059"></path><path d="M294.0416 708.096c-41.8304 0-76.6976 29.6448-84.736 69.0688 51.5584 16.8448 106.5984 26.0608 163.7888 26.0608 2.3552 0 4.6592-0.1536 7.0144-0.1536 0.256-2.7648 0.4096-5.632 0.4096-8.448 0-47.8208-38.7072-86.528-86.4768-86.528z" fill="#0d9488" p-id="7060"></path><path d="M820.5312 158.2592H371.2c-55.296 0-100.096 44.8-100.096 100.096v96.6144a34.4064 34.4064 0 0 1-15.8208 28.9792L113.3056 475.136c-18.7904 12.0832-30.208 32.9216-30.208 55.2448v185.9584c28.3136 18.6368 58.4704 34.6112 90.2144 47.616 13.6704-54.016 62.464-94.0544 120.7296-94.0544 68.864 0 124.672 55.808 124.672 124.672 0 0.3072-0.0512 0.5632-0.0512 0.8704h44.2368c53.1968-9.1136 103.6288-26.1632 150.1184-49.9712a124.61056 124.61056 0 0 1 110.336-75.3664c108.9024-96.7168 177.6128-237.6704 177.6128-394.752 0-28.8768-2.4064-57.1392-6.8608-84.7872-18.3296-19.7632-44.4928-32.3072-73.5744-32.3072zM412.7744 576.512c0 28.2624-22.9888 51.2-51.2 51.2H247.2448c-23.1936 0-41.9328-18.7904-41.9328-41.9328 0-23.1936 18.7904-41.9328 41.9328-41.9328h81.6128V491.3664c0-23.1936 18.7904-41.9328 41.9328-41.9328s41.9328 18.7904 41.9328 41.9328v85.1456z" fill="#0d9488" p-id="7061"></path><path d="M371.2 158.2592c-55.296 0-100.096 44.8-100.096 100.096v96.6144a34.4064 34.4064 0 0 1-15.8208 28.9792L113.3056 475.136c-18.7904 12.0832-30.208 32.9216-30.208 55.2448v64.8704c42.8544 12.288 87.9616 19.2512 134.5024 20.224a41.69728 41.69728 0 0 1-12.3392-29.696c0-23.1936 18.7904-41.9328 41.9328-41.9328h81.6128V491.3664c0-23.1936 18.7904-41.9328 41.9328-41.9328s41.9328 18.7904 41.9328 41.9328v85.1456c0 2.1504-0.1536 4.2496-0.4608 6.3488 179.8144-66.7648 313.2928-228.7104 339.4048-424.6016H371.2z" fill="#0d9488" p-id="7062"></path><path d="M271.104 258.4064v96.6144A34.4064 34.4064 0 0 1 255.2832 384L201.728 418.3552c152.7296-31.0784 281.3952-128.1536 355.1232-260.096H371.2c-55.296 0-100.096 44.8512-100.096 100.1472z" fill="#0d9488" p-id="7063"></path></svg>
