<svg t="1726499025839" class="icon" viewBox="0 0 1024 1024" version="1.1" xmlns="http://www.w3.org/2000/svg" p-id="1656" width="200" height="200"><path d="M0 0h1024v1024H0V0z" fill="#202425" opacity=".01" p-id="1657"></path><path d="M662.664533 48.264533a68.266667 68.266667 0 0 0-96.529066 0l-98.269867 98.269867c-21.504 21.504-6.280533 58.2656 24.132267 58.2656h244.804266c30.378667 0 45.636267-36.7616 24.132267-58.2656l-98.269867-98.269867zM307.2 921.6a68.266667 68.266667 0 1 1-136.533333 0 68.266667 68.266667 0 0 1 136.533333 0z m614.4 0a68.266667 68.266667 0 1 1-136.533333 0 68.266667 68.266667 0 0 1 136.533333 0z" fill="#FFAA44" p-id="1658"></path><path d="M68.266667 85.333333a51.2 51.2 0 1 0 0 102.4h26.7264l116.565333 553.6768A119.466667 119.466667 0 0 0 328.465067 836.266667H853.333333a51.2 51.2 0 0 0 0-102.4H328.465067a17.066667 17.066667 0 0 1-16.725334-13.550934L303.854933 682.666667h535.552a68.266667 68.266667 0 0 0 65.3312-48.5376l92.740267-307.2A68.266667 68.266667 0 0 0 932.078933 238.933333H210.397867l-18.056534-85.845333A85.333333 85.333333 0 0 0 108.8512 85.333333H68.266667z" fill="#FF7744" p-id="1659"></path></svg>
