<svg t="1728834659624" class="icon" viewBox="0 0 1024 1024" version="1.1" xmlns="http://www.w3.org/2000/svg" p-id="30459" width="200" height="200"><path d="M293.170166 656.580525H167.125075L79.127273 356.893996h863.370602l-90.385067 299.686529h-123.690925" fill="#8585B0" p-id="30460"></path><path d="M852.112808 687.610828h-123.690925c-17.141139 0-31.030303-13.889164-31.030303-31.030303s13.889164-31.030303 31.030303-31.030303h100.641616l71.66345-237.625923H120.57962l69.772671 237.625923h102.817875c17.137002 0 31.030303 13.889164 31.030303 31.030303s-13.893301 31.030303-31.030303 31.030303H167.125075a31.030303 31.030303 0 0 1-29.772542-22.288032L49.354731 365.636267a31.022028 31.022028 0 0 1 29.772542-39.768437h863.370602a31.017891 31.017891 0 0 1 29.710481 39.987717l-90.385067 299.690667a31.030303 31.030303 0 0 1-29.710481 22.064614z" fill="#5A5A7D" p-id="30461"></path><path d="M728.421883 549.546667v435.528921h-435.251717V549.546667s-3.566416-117.72897 217.629996-117.72897c225.94198 0 217.621721 117.72897 217.621721 117.72897z" fill="#A6A6C9" p-id="30462"></path><path d="M728.421883 1016.105891h-435.251717a31.030303 31.030303 0 0 1-31.030303-31.030303V549.749398c-0.070335-7.157657 1.282586-46.392372 37.232226-83.450828 42.172251-43.471386 113.306117-65.511176 211.428073-65.511176 101.01398 0 173.178053 22.478352 214.485592 66.810311 33.545826 36.007564 34.464323 73.715588 34.166432 82.598529v434.875217a31.030303 31.030303 0 0 1-31.030303 31.03444z m-404.221414-62.060606h373.191111v-404.498618c0-1.096404-0.053786-1.009519 0.041374-1.853544-0.041374-2.883749-1.017794-20.935111-18.957447-39.255402-20.355879-20.798578-65.970424-45.589721-167.675345-45.589721-178.705584 0-186.276978 79.032113-186.591419 86.061511 0.020687 0.302028-0.008275-0.008275-0.008274 0.637156v404.498618z" fill="#5A5A7D" p-id="30463"></path><path d="M198.188477 986.523669h624.164202" fill="#A6A6C9" p-id="30464"></path><path d="M822.352679 1017.553972H198.188477c-17.137002 0-31.030303-13.889164-31.030303-31.030303s13.893301-31.030303 31.030303-31.030303h624.164202c17.141139 0 31.030303 13.889164 31.030303 31.030303s-13.893301 31.030303-31.030303 31.030303z" fill="#5A5A7D" p-id="30465"></path><path d="M600.510836 971.488453v-400.452267" fill="#A6A6C9" p-id="30466"></path><path d="M600.510836 1002.518756a31.026166 31.026166 0 0 1-31.030303-31.030303v-400.452267c0-17.141139 13.889164-31.030303 31.030303-31.030303s31.030303 13.889164 31.030303 31.030303v400.452267a31.030303 31.030303 0 0 1-31.030303 31.030303z" fill="#5A5A7D" p-id="30467"></path><path d="M427.547927 971.488453v-400.452267" fill="#A6A6C9" p-id="30468"></path><path d="M427.547927 1002.518756a31.030303 31.030303 0 0 1-31.030303-31.030303v-400.452267c0-17.141139 13.893301-31.030303 31.030303-31.030303s31.030303 13.889164 31.030303 31.030303v400.452267a31.030303 31.030303 0 0 1-31.030303 31.030303z" fill="#5A5A7D" p-id="30469"></path><path d="M171.216937 211.337051c-0.372364-2.672743-8.651248-66.020073 32.478384-113.273019 27.720404-31.849503 69.512016-48.00181 124.216372-48.00181v62.060606c-35.94964 0-61.994408 8.978101-77.401988 26.681924-22.416291 25.759289-17.873455 63.591434-17.823806 63.963797L171.216937 211.337051z" fill="#5A5A7D" p-id="30470"></path><path d="M79.127273 220.315152h863.370602v136.578844H79.127273z" fill="#A6A6C9" p-id="30471"></path><path d="M942.497875 387.924299H79.127273a31.030303 31.030303 0 0 1-31.030303-31.030303V220.315152a31.030303 31.030303 0 0 1 31.030303-31.030304h863.370602a31.030303 31.030303 0 0 1 31.030303 31.030304v136.578844a31.030303 31.030303 0 0 1-31.030303 31.030303zM110.157576 325.863693h801.309996V251.345455H110.157576v74.518238z" fill="#5A5A7D" p-id="30472"></path><path d="M543.030303 94.427281c0 27.306667-22.341818 49.648485-49.648485 49.648485H377.55604c-27.306667 0-49.648485-22.341818-49.648484-49.648485V83.781818c0-27.306667 22.341818-49.648485 49.648484-49.648485h115.825778c27.306667 0 49.648485 22.341818 49.648485 49.648485v10.645463z" fill="#ED7E7E" p-id="30473"></path><path d="M493.381818 175.106069H377.55604c-44.485042 0-80.678788-36.193745-80.678787-80.678788V83.781818c0-44.485042 36.193745-80.678788 80.678787-80.678788h115.825778c44.485042 0 80.678788 36.193745 80.678788 80.678788v10.645463c0 44.485042-36.193745 80.678788-80.678788 80.678788zM377.55604 65.163636c-10.091055 0-18.618182 8.527127-18.618181 18.618182v10.645463c0 10.091055 8.527127 18.618182 18.618181 18.618182h115.825778c10.091055 0 18.618182-8.527127 18.618182-18.618182V83.781818c0-10.091055-8.527127-18.618182-18.618182-18.618182H377.55604z" fill="#5A5A7D" p-id="30474"></path><path d="M112.743434 358.917172h806.787879v62.060606h-806.787879z" fill="#5A5A7D" opacity=".3" p-id="30475"></path><path d="M648.533333 469.484347h62.060606v501.999968h-62.060606z" fill="#5A5A7D" opacity=".3" p-id="30476"></path></svg>
