<svg t="1728833394256" class="icon" viewBox="0 0 1024 1024" version="1.1" xmlns="http://www.w3.org/2000/svg" p-id="3556" width="200" height="200"><path d="M292 4h440c20.28 0 36.64 16.44 36.64 36.68v220.2H255.36V40.68C255.36 20.44 271.76 4 292 4" fill="#C7E0FF" p-id="3557"></path><path d="M603.64 4H732c20.28 0 36.64 16.44 36.64 36.68v220.2h-165V4z m-311.6 0h128.28v256.92H255.36V40.68c0-20.24 16.4-36.68 36.68-36.68z m0 0" fill="#3E88FF" p-id="3558"></path><path d="M233.32 260.92h557.32c8.12 0 14.64 6.56 14.64 14.68v7.36c0 8.12-6.56 14.64-14.64 14.64H233.32c-8.08 0-14.64-6.52-14.64-14.6V275.6c0-8.12 6.56-14.68 14.64-14.68" fill="#E29803" p-id="3559"></path><path d="M363.96 267.28H660v109.2H363.96z" fill="#E29803" p-id="3560"></path><path d="M158.4 672.16c0 124.24 67.4 239.04 176.76 301.2a358.832 358.832 0 0 0 353.64 0c109.4-62.16 176.76-177 176.76-301.2 0-192.04-158.28-347.76-353.6-347.76-195.24 0-353.56 155.72-353.56 347.76" fill="#DBDBDB" p-id="3561"></path><path d="M158.4 672.16c0 124.24 67.4 239.04 176.76 301.2a358.832 358.832 0 0 0 353.64 0c109.4-62.16 176.76-177 176.76-301.2 0-192.04-158.28-347.76-353.6-347.76-195.24 0-353.56 155.72-353.56 347.76" fill="#FFCA28" p-id="3562"></path><path d="M208.12 670.4a303.84 303.84 0 0 0 150.88 266.16c94.56 55.08 211.44 55.08 305.96 0a303.808 303.808 0 0 0 150.88-266.16c0-167.84-136.08-303.88-303.92-303.88s-303.88 136.04-303.88 303.88" fill="#E29803" p-id="3563"></path><path d="M512 968.8c-163.8 0-296.6-132.8-296.6-296.6S348.2 375.6 512 375.6s296.6 132.8 296.6 296.6-132.8 296.6-296.6 296.6" fill="#FFB300" p-id="3564"></path><path d="M613.44 393.48c-153.92-56.04-324.12 23.36-380.16 177.28s23.32 324.12 177.28 380.16l202.88-557.44z" fill="#FFC233" p-id="3565"></path><path d="M790.72 773.64c56.04-153.92-23.32-324.12-177.28-380.16l-202.88 557.44c153.92 56.04 324.12-23.32 380.16-177.28z" fill="#FFB300" p-id="3566"></path><path d="M418.2 796.68h70.2v-206.6h-59.16v-40.16c32.68-6.16 55.16-14.56 75.92-27.36h48.12v274.12h61.36v52.52h-196.44v-52.52z" fill="#E29803" p-id="3567"></path><path d="M418.2 788.28h70.2v-206.6h-59.16v-40.16c32.68-6.16 55.16-14.56 75.92-27.36h48.12v274.12h61.36v52.52h-196.44v-52.52z" fill="#FFFFFF" p-id="3568"></path></svg>
