<svg t="1728837842243" class="icon" viewBox="0 0 1173 1024" version="1.1" xmlns="http://www.w3.org/2000/svg" p-id="5157" width="200" height="200"><path d="M105.07239 993.979317c-27.672976-11.513756-45.555512-22.478049-81.320585-56.469854 70.930732-104.323122 95.756488-193.061463 104.398049-270.286048a69.057561 69.057561 0 0 1-38.637269-61.664781c0-23.626927 12.113171-44.356683 30.570147-56.469854 0.574439-94.507707 19.031415-168.835122 57.119219-220.709463l-106.72078-44.956097c-31.169561-14.410927-31.719024-36.888976-0.599415-50.700488L575.238244 20.604878c31.144585-13.836488 24.80078-13.836488 55.945366 0l502.484292 213.79122c31.144585 13.836488 31.719024 36.314537 0.574439 50.725463l-498.438243 212.067902c-31.144585 13.836488-24.80078 13.836488-55.945366 0l-244.011708-102.574829 285.546147-141.761561a37.763122 37.763122 0 0 0 17.308097-50.700488 37.838049 37.838049 0 0 0-50.775414-17.308097L265.490732 345.088c-44.43161 33.417366-68.657951 100.277073-69.80683 204.00078a67.608976 67.608976 0 0 1 30.570147 57.044293 68.183415 68.183415 0 0 1-40.385561 62.23922c8.092098 137.740488 17.308098 273.732683-80.771122 325.607024z m488.04839-40.910049c-158.645073-4.620488-267.66361-46.70439-326.506146-127.375609v-125.052879a143.659707 143.659707 0 0 0 35.190634-94.507707 143.659707 143.659707 0 0 0-35.215609-94.507707V486.275122c0-13.836488 11.563707-25.350244 25.400195-25.350244 3.47161 0 6.918244 0.574439 9.815414 1.723317l272.284098 114.113561c21.928585 9.216 47.303805 9.216 69.23239 0l317.290146-135.442732c12.68761-5.74439 27.672976 0.574439 33.467318 13.237074 1.123902 2.897171 2.297756 6.36878 2.297756 9.815414V825.693659c-67.509073 77.224585-176.52761 119.308488-326.531122 126.80117l-76.725074 0.574439z m10.989269-194.210341v39.761171H531.980488a27.073561 27.073561 0 1 0 0 54.172097h72.104585v52.448781c0 14.985366 12.113171 27.073561 27.123512 27.073561 14.985366 0 27.098537-12.088195 27.098537-27.073561v-52.448781h72.129561a27.073561 27.073561 0 1 0 0-54.172097h-72.129561v-39.761171h72.129561a27.073561 27.073561 0 1 0 0-54.197073h-38.662244l57.11922-52.998244a26.599024 26.599024 0 0 0 1.148878-38.037854 26.673951 26.673951 0 0 0-38.087805-1.148878l-81.92 76.650146-79.597269-73.777951a26.673951 26.673951 0 0 0-38.062829 1.748293c-9.815415 10.939317-9.240976 28.222439 1.723317 38.037854l54.222049 50.126048h-35.765073a27.073561 27.073561 0 1 0 0 54.172098l71.530146-0.574439z" fill="#fde047" p-id="5158"></path></svg>
