<svg t="1728841716898" class="icon" viewBox="0 0 1024 1024" version="1.1" xmlns="http://www.w3.org/2000/svg" p-id="12545" width="200" height="200"><path d="M499.908923 787.928615l-183.414154 96.413539a30.72 30.72 0 0 1-44.583384-32.374154l35.052307-204.209231a30.72 30.72 0 0 0-8.861538-27.175384l-148.361846-144.659693a30.72 30.72 0 0 1 17.014154-52.381538l205.075692-29.814154a30.72 30.72 0 0 0 23.118769-16.777846l91.687385-185.816616a30.72 30.72 0 0 1 55.099077 0l91.726769 185.816616a30.72 30.72 0 0 0 23.118769 16.777846l205.036308 29.814154a30.72 30.72 0 0 1 17.053538 52.381538l-148.401231 144.659693a30.72 30.72 0 0 0-8.822153 27.175384l35.052307 204.209231a30.72 30.72 0 0 1-44.583384 32.374154l-183.414154-96.413539a30.72 30.72 0 0 0-28.593231 0z" fill="#FECD34" p-id="12546"></path><path d="M140.524308 449.969231l373.68123 81.880615-234.811076 343.748923a30.798769 30.798769 0 0 1-7.483077-25.796923l35.052307-204.209231a30.72 30.72 0 0 0-8.861538-27.175384l-148.361846-144.659693a30.641231 30.641231 0 0 1-9.216-23.788307z m747.126154 6.183384a30.72 30.72 0 0 1-8.979693 17.604923l-148.401231 144.620308a30.759385 30.759385 0 0 0-8.822153 27.175385l35.052307 204.248615a30.72 30.72 0 0 1-13.784615 31.113846l-228.509539-349.065846L886.153846 441.501538a30.523077 30.523077 0 0 1 1.457231 14.651077z" fill="#FEA935" p-id="12547"></path><path d="M185.895385 288.098462L132.332308 267.027692a20.48 20.48 0 0 1 0-38.084923l53.563077-21.149538a20.48 20.48 0 0 0 11.579077-11.539693l21.110153-53.563076a20.48 20.48 0 0 1 38.084923 0l21.149539 53.563076a20.48 20.48 0 0 0 11.539692 11.539693l53.563077 21.149538a20.48 20.48 0 0 1 0 38.084923l-53.563077 21.110154a20.48 20.48 0 0 0-11.539692 11.539692l-21.110154 53.563077a20.48 20.48 0 0 1-38.124308 0l-21.110153-53.563077a20.48 20.48 0 0 0-11.539693-11.539692z m542.72 0l-53.563077-21.110154a20.48 20.48 0 0 1 0-38.084923l53.563077-21.149539a20.48 20.48 0 0 0 11.579077-11.539692l21.110153-53.563077a20.48 20.48 0 0 1 38.084923 0l21.149539 53.563077a20.48 20.48 0 0 0 11.539692 11.539692l53.563077 21.149539a20.48 20.48 0 0 1 0 38.084923l-53.563077 21.110154a20.48 20.48 0 0 0-11.539692 11.539692l-21.110154 53.563077a20.48 20.48 0 0 1-38.124308 0l-21.110153-53.563077a20.48 20.48 0 0 0-11.539693-11.539692z" fill="#FECD34" p-id="12548"></path></svg>
