<svg id="logo" width="35vw" height="100%" xmlns="http://www.w3.org/2000/svg" viewBox="0 0 330.7207 330.1071"><g id="c"><path d="m165.3604.0c91.1169.0 165.3604 74.2434 165.3604 165.3604.0 90.8101-74.2434 164.7468-165.3604 164.7468v-62.5854c26.0772.0 52.4613-10.1241 72.4027-30.0655 39.576-39.8828 39.576-104.6157.0-144.4986-19.9414-19.9414-46.3254-29.7587-72.4027-29.7587V0zm0 0h0v63.1989c-26.0772.0-52.4613 9.8173-72.4027 29.7587-39.576 39.8828-39.576 104.6157.0 144.4986 19.9414 19.9414 46.3254 30.0655 72.4027 30.0655v62.5854h0C74.2434 330.1071.0 256.1705.0 165.3604.0 74.2434 74.2434.0 165.3604.0z" style="fill:#004098;stroke-width:0"/><path d="m142.9646 136.522c34.6674-34.9742 76.0842-50.3137 92.0373-34.6674 8.5901 8.8969 7.9766 24.8501.0 43.5643h-7.6698c10.1241-18.4075 12.5784-34.0538 5.5222-41.11-12.5784-12.5784-50.3137 4.6019-83.7539 38.0421l-.6136.6136c-2.7611-1.534-5.5222-2.7611-8.5901-3.3747.9204-1.2272 1.8407-2.1475 3.0679-3.0679h0zm-40.8032 76.6978v-4.6019c.6136-8.5901 3.6815-19.021 9.2037-29.7587 1.2272 2.1475 3.0679 4.2951 4.9087 5.829-10.1241 18.7143-12.8852 34.3606-5.5222 41.7236 12.5784 12.5784 50.0069-4.9087 83.7539-38.3489.9204-.9204 1.8407-2.1475 2.7611-3.0679h11.6581c-2.4543 3.0679-5.5222 6.1358-8.2834 9.2037-34.9742 34.6674-76.391 50.3137-92.0373 34.3606-3.9883-3.9883-5.829-9.2037-6.4426-15.3396z" style="fill:#004098;stroke-width:0"/><path d="m134.0677 142.0442c12.5784.0 23.0093 10.4309 23.0093 23.3161.0 8.2834-4.2951 15.6463-11.0445 19.6346.9204.9204 1.8407 2.1475 3.0679 3.0679 7.0562 7.0562 14.1124 13.192 21.4754 18.7143-2.4543 1.8407-4.9087 3.6815-7.0562 5.2154-7.0562-5.2154-13.8056-11.0445-20.555-17.7939-2.1475-2.1475-3.9883-3.9883-5.829-6.1358-.9204.3068-2.1475.3068-3.0679.3068-12.8852.0-23.3161-10.4309-23.3161-23.0093.0-3.6815.9204-7.0562 2.4543-10.1241-6.7494-12.5784-10.7377-24.5433-11.0445-34.3606v-2.7611c.3068-6.7494 2.4543-12.2716 6.4426-16.2599 11.3513-11.3513 35.8945-6.4426 61.665 10.1241-2.1475 1.534-4.6019 3.0679-6.7494 4.6019-23.3161-15.3396-44.1779-21.1686-52.7681-12.2716-7.6698 7.363-4.2951 24.5433 7.363 44.1779 3.9883-3.9883 9.8173-6.4426 15.9531-6.4426h0zm46.0187 71.7891c23.3161 15.6463 44.1779 21.1686 52.7681 12.5784 7.0562-7.363 4.6019-23.0093-5.5222-41.4168h7.6698c7.9766 18.7143 8.5901 34.9742.0 43.5643-11.3513 11.3513-35.8945 6.7494-61.9718-9.8173 2.4543-1.534 4.6019-3.3747 7.0562-4.9087h0zm0-95.412c6.7494 5.2154 13.8056 11.3513 20.555 18.1007 2.7611 2.7611 5.829 5.829 8.2834 8.8969h-11.6581c-.9204-.9204-1.8407-1.8407-2.7611-3.0679-7.0562-7.0562-14.4192-13.192-21.4754-18.7143 2.4543-1.8407 4.6019-3.6815 7.0562-5.2154z" style="fill:#f08300;stroke-width:0"/><path d="m96.946 150.3276h9.2037v17.4871c0 1.8407-.3068 3.3747-.9204 4.9087-.3068 1.534-1.2272 2.7611-2.4543 3.9883s-2.4543 1.8407-3.6815 2.4543c-1.8407.6136-3.6815.9204-6.1358.9204-1.534.0-3.0679.0-4.9087-.3068-1.534-.3068-3.0679-.6136-3.9883-1.2272-1.2272-.6136-2.1475-1.2272-3.0679-2.4543-1.2272-1.2272-1.8407-2.1475-2.1475-3.3747-.6136-1.8407-.6136-3.3747-.6136-4.9087v-17.4871h8.8969v17.7939c0 1.8407.3068 3.0679 1.2272 3.6815.9204.9204 2.1475 1.534 3.6815 1.534s2.7611-.6136 3.6815-1.2272c.9204-.9204 1.2272-2.1475 1.2272-3.9883v-17.7939z" style="fill:#004098;stroke-width:0"/><path d="m141.7374 170.269 4.9087.6136c-.6136 3.0679-2.1475 5.2154-4.2951 6.7494-2.1475 1.534-4.9087 2.4543-8.2834 2.4543h-.3068v-3.9883h.3068c1.8407.0 3.3747-.3068 4.6019-1.2272s2.4543-2.4543 3.0679-4.6019h0zm-7.9766-19.9414h0c3.9883.0 7.0562 1.2272 9.5105 3.9883 2.4543 2.4543 3.6815 6.1358 3.6815 10.7377v1.534h-13.192v-3.9883h7.9766c-.3068-2.4543-.9204-4.2951-1.8407-5.5222-1.534-1.8407-3.3747-2.7611-5.829-2.7611h-.3068v-3.9883zm0 29.7587c-3.9883.0-7.0562-1.2272-9.5105-3.6815-2.4543-2.7611-3.6815-6.1358-3.6815-11.0445.0-4.6019 1.2272-8.2834 3.6815-11.0445 2.4543-2.4543 5.5222-3.9883 9.5105-3.9883v3.9883c-2.1475.0-3.9883.9204-5.5222 2.1475-1.2272 1.534-2.1475 3.6815-2.4543 6.1358h7.9766v3.9883h-8.2834c.3068 3.0679 1.2272 5.5222 2.7611 7.0562s3.3747 2.4543 5.5222 2.4543v3.9883z" style="fill:#fff;stroke-width:0"/><path d="m161.9857 169.9622 8.5901-.3068c0 1.2272.3068 2.4543.9204 3.0679.9204 1.2272 2.1475 1.8407 3.9883 1.8407 1.2272.0 2.1475-.3068 3.0679-.9204.6136-.6136.9204-1.2272.9204-2.1475.0-.6136-.3068-1.534-.9204-1.8407-.6136-.6136-2.1475-1.2272-4.6019-1.8407-3.9883-.9204-6.7494-2.1475-8.2834-3.3747-1.8407-1.534-2.7611-3.3747-2.7611-5.5222.0-1.534.6136-3.0679 1.534-4.2951.6136-1.2272 2.1475-2.4543 3.6815-3.0679 1.8407-.9204 4.2951-1.2272 7.0562-1.2272 3.6815.0 6.4426.6136 8.5901 2.1475 1.8407 1.2272 3.0679 3.3747 3.3747 6.4426l-8.2834.6136c-.3068-1.534-.9204-2.4543-1.534-3.0679-.6136-.3068-1.534-.6136-3.0679-.6136-.9204.0-1.534.0-2.1475.6136-.6136.3068-.9204.9204-.9204 1.534.0.3068.3068.9204.6136 1.2272.6136.3068 1.534.6136 3.0679.9204 3.9883.9204 6.7494 1.8407 8.2834 2.7611 1.8407.9204 3.0679 1.8407 3.6815 3.0679.9204 1.2272 1.2272 2.7611 1.2272 4.2951.0 1.8407-.6136 3.6815-1.534 5.2154s-2.4543 2.7611-4.2951 3.3747c-1.8407.9204-3.9883 1.2272-6.7494 1.2272-4.9087.0-8.2834-.9204-10.4309-2.7611-1.8407-1.8407-2.7611-4.2951-3.0679-7.363z" style="fill:#004098;stroke-width:0"/><polygon points="191.7444 150.3276 219.6624 150.3276 219.6624 157.6906 210.1518 157.6906 210.1518 180.0863 200.9481 180.0863 200.9481 157.6906 191.7444 157.6906 191.7444 150.3276" style="fill:#004098;stroke-width:0"/><path d="m238.0698 150.3276c6.7494.0 12.5784 4.6019 14.4192 10.7377h-7.6698c-1.534-2.1475-3.9883-3.6815-6.7494-3.6815-4.2951.0-7.9766 3.6815-7.9766 7.9766s3.6815 7.6698 7.9766 7.6698c2.7611.0 5.2154-1.534 6.7494-3.6815h7.6698c-1.8407 6.1358-7.6698 10.7377-14.4192 10.7377-8.2834.0-15.0328-6.7494-15.0328-14.726.0-8.2834 6.7494-15.0328 15.0328-15.0328z" style="fill:#004098;stroke-width:0"/><path d="m195.4259 308.6318v-2.7611c2.7611-.3068 5.2154-3.3747 3.3747-6.1358-.9204-1.2272-1.8407-.3068-1.8407.9204.0.9204-.9204 1.8407-.9204 1.8407s-.3068.0-.6136-.3068v-6.4426c.9204.0 2.1475.0 3.9883.6136 4.9087 2.1475 4.2951 11.0445-3.3747 12.2716h-.6136zm0-13.4988v-4.2951c1.534-.9204 2.4543-1.2272 2.4543-1.2272 2.7611-2.7611 10.1241-2.4543 10.4309 1.8407.0 1.8407.0 3.6815-2.7611 3.9883-3.0679.3068-2.1475-2.4543-2.1475-2.4543h1.2272s.6136-.9204.3068-1.8407c-.3068-.6136-1.534-.6136-4.6019.0-2.1475.6136-3.9883 2.7611-4.9087 3.9883zm0-4.2951v4.2951c-.3068.6136-.6136.9204-.6136.9204s.3068.0.6136-.3068v6.4426c-.6136.0-1.2272-.6136-1.534-1.2272.0-1.534-1.534-.9204-1.534-.9204s-.9204.9204-.6136 2.4543c0 1.8407.6136 2.4543 2.1475 3.0679.6136.3068.9204.3068 1.534.3068v2.7611c-3.9883.6136-6.1358-.6136-7.363-2.7611v-7.0562c1.2272-3.6815 4.9087-6.4426 7.363-7.9766h0zm-7.363-1.2272v-.3068h.6136s-.3068.0-.6136.3068zm0-.3068v.3068c-.6136.3068-2.1475.9204-3.0679 1.534-1.534 1.2272-2.7611 4.2951-2.7611 4.2951l-1.2272-3.3747-5.5222-.3068-2.4543 3.3747s2.4543.0 4.2951.6136c2.1475.6136 3.0679 2.7611 3.0679 5.2154.0 2.1475-.6136 4.2951-3.0679 6.7494-2.1475 2.1475-7.9766 2.7611-10.7377.9204-3.0679-1.534-2.7611-6.1358-1.534-7.9766 1.2272-2.1475 3.6815-1.534 4.9087-1.2272 1.2272.6136.6136 2.4543.3068 3.6815-.3068.9204-1.2272.9204-1.2272.9204s-.6136-2.1475-.9204-.9204c-.3068 1.534 1.2272 2.4543 2.7611 2.7611 1.8407.3068 3.6815-.6136 4.2951-2.1475.6136-1.8407.6136-3.6815-.9204-5.2154s-7.0562-.6136-7.0562-.6136l6.7494-9.2037 14.1124.6136h0zm0 9.5105h0c-.6136 2.7611-.6136 5.2154.0 7.0562v-7.0562h0zm-34.9742 7.0562v-11.0445h.6136c.9204.0 1.534.6136 1.534 1.534.0.6136.6136.6136.9204.3068.9204-.6136 1.534-3.6815-.3068-4.9087-.9204-.6136-1.8407-.9204-2.7611-.9204v-3.0679c3.6815.0 7.363 2.4543 7.6698 7.0562.0 3.9883-3.3747 8.5901-7.6698 11.0445zm-11.0445-18.4075-1.534.3068v1.8407l1.534-2.1475h0zm11.0445.3068v3.0679c-1.8407-.3068-3.6815.9204-3.9883 2.7611-.3068 2.4543 1.534 2.7611 1.2272 2.7611.0.0 1.534-1.2272 2.7611-1.534v11.0445c-1.2272.9204-2.7611 1.2272-3.9883 1.8407-4.6019 1.534-6.7494 1.2272-8.5901.3068v-4.6019c.6136-.3068.9204-.3068 1.534.0 1.534.0.3068.9204.6136 2.1475.3068 1.8407 4.2951.3068 6.4426-1.2272 1.8407-1.534 2.7611-3.6815 2.7611-3.6815s-4.9087-1.534-5.5222-3.9883c-.9204-2.7611.0-7.6698 4.6019-8.5901.6136-.3068 1.534-.3068 2.1475-.3068zm-12.5784.0-8.8969 1.2272 2.1475 2.7611-11.6581 17.1803h5.829l12.5784-19.3278V287.77h0zm0 15.6463v4.6019l-.9204-.9204c-.6136-1.2272-.3068-2.4543.3068-3.3747.3068-.3068.6136-.3068.6136-.3068z" style="fill:#fff;stroke-width:0"/><path d="m33.747 177.0184c0-.3068.3068-.3068.3068-.6136 1.534-1.2272.9204-2.7611 3.3747-2.4543 2.1475.3068 7.0562.3068 8.2834-1.2272 1.534-1.534 3.6815-7.0562 3.3747-10.1241s-1.2272-4.6019-3.0679-3.9883c-1.8407.3068-2.1475 4.9087-2.1475 7.0562.0 1.8407-.9204 4.2951-2.7611 4.2951-.6136.0-1.2272.0-1.534-.3068-.9204-.6136-.6136-1.8407-.9204-3.3747.0-2.1475.3068-3.9883-.9204-4.2951-.6136-.3068-2.4543-.6136-3.9883-1.534v4.9087q.3068.0.6136.3068c0 .3068-.3068.6136-.3068.6136h-.3068v10.7377zm-3.3747 1.8407h.3068c2.1475.3068 2.1475-.9204 3.0679-1.8407v-10.7377c-.6136.0-.3068-.6136-.6136-.3068v-.6136h.6136v-4.9087c-.9204-.3068-1.534-.9204-2.1475-1.2272l-1.2272-1.2272v6.1358l.3068-.3068c.6136-.3068.3068.0.6136.3068.0.3068-.6136 1.2272-.9204 1.534h0v13.192zm-7.363-9.2037c.6136.0 1.2272-.3068 2.1475.0 1.2272 1.2272 3.0679 2.1475 2.7611 3.0679-.3068 1.2272-.3068 1.8407-1.534 1.8407-.9204.3068-2.1475.0-3.3747.0v1.534c2.1475.9204 5.5222 2.4543 7.363 2.7611v-12.8852h0v-.3068h-.6136c0-.3068-.3068-.3068-.3068-.6136s-.3068-.3068.3068-.9204h.6136v-6.1358c-.9204-.9204-1.2272-1.534-1.8407-3.0679-.9204-1.8407-1.2272-3.3747-2.1475-3.3747-.3068.0-1.8407.3068-3.3747 1.2272v3.0679c.6136.0.9204.3068 1.8407.9204 1.534.9204 3.3747 3.0679 3.0679 4.6019-.6136 1.534-.9204 1.2272-2.7611.9204-.6136-.3068-1.2272-.3068-2.1475-.6136v7.9766zm-5.5222-1.534s2.4543 2.7611 3.6815 2.1475c.6136.0 1.2272-.3068 1.8407-.6136v-7.9766c-1.534-.6136-3.0679-1.2272-3.3747-1.534l-1.2272-1.2272s-.3068-1.534.6136-1.8407c1.2272-.6136.9204-.9204 2.1475-1.2272.9204.0 1.534-.3068 1.8407.0v-3.0679c-.6136.3068-1.534.9204-2.4543 1.534-2.1475 1.534-4.6019 2.1475-4.6019 2.1475s-1.8407-.6136-3.6815-.9204c-2.1475.0-3.3747-.6136-5.5222.6136s-2.7611 2.4543-2.7611 2.4543 3.0679-.6136 3.9883.0c.9204.3068 3.3747 2.1475 4.9087 3.3747 1.2272 1.2272 2.7611 3.0679 3.3747 4.2951.9204 1.534 1.2272 1.8407 1.2272 1.8407h0zm5.5222 6.4426h-.6136c-.9204.0-.9204.6136-.9204.6136s.6136.3068 1.534.9204v-1.534z" style="fill:#fff;stroke-width:0"/><path d="m61.3582 100.9342c1.534.6136 3.3747 1.534 3.3747 1.534s0-.9204.9204-1.534 3.0679-3.6815 3.9883-6.4426c.9204-2.1475.3068-4.9087-.6136-6.1358-.9204-.9204-3.6815-2.4543-4.9087-3.0679-1.2272-.3068-1.8407-1.534-1.534-2.4543.0-.9204.6136-2.4543.9204-3.0679s-.6136-1.8407-.6136-1.8407-.3068.6136-1.534.9204v11.0445c.3068.3068.6136.3068.9204.3068.6136.9204 1.2272 1.2272 1.534 1.8407.6136.3068 1.2272 1.2272 1.534 2.4543.0 1.2272-.9204 1.8407-1.8407 2.7611-.9204.0-1.534.3068-2.1475.3068v3.3747zm-23.9297-19.021s.9204 2.7611.9204 3.3747c.3068.6136.3068.9204.3068.9204s1.534-.6136 2.4543-1.2272q.9204-1.2272 1.534-.9204c.6136.6136 3.0679 2.1475 4.6019 3.3747 2.1475.9204 2.7611 2.1475 4.2951 3.3747 1.2272.9204 3.3747 1.2272 3.3747 1.2272l-2.7611 5.829s-.3068 2.1475.3068 2.4543c.3068.6136 1.8407.6136 3.3747.0.9204-.3068 2.7611-.3068 3.3747-.3068.3068.0 1.2272.6136 2.1475.9204v-3.3747c-.6136.3068-.9204.3068-1.534.3068-.9204.0-1.534-.3068-1.8407-.6136-.6136.0-.9204-1.2272-.9204-1.2272s.3068-1.8407.6136-3.0679c.6136-.9204.9204-1.8407 1.534-2.1475.3068-.6136.6136-1.534.9204-1.2272s.9204.3068 1.2272.3068V78.8452c-1.2272.6136-2.4543 1.534-3.0679 2.1475s-1.2272 2.1475-1.8407 3.0679c-.6136 1.2272-1.2272 2.7611-2.1475 2.7611-.6136.3068-2.1475-.3068-3.0679-1.2272s-3.3747-3.9883-4.2951-4.9087-2.4543-1.8407-3.6815-2.7611c-1.8407-.3068-3.0679.9204-3.9883 1.534-.9204.3068-1.8407 2.4543-1.8407 2.4543z" style="fill:#fff;stroke-width:0"/><path d="m121.1825 40.4964v-3.9883c.6136-.3068.9204-.6136.9204-.6136.6136-.3068.9204-1.2272.6136-1.8407q0-.6136-.9204-.9204s-.3068.0-.6136-.3068V17.1803c.6136.9204 1.534 2.7611 2.1475 3.3747.3068.9204 1.2272 1.534 1.8407 2.7611.9204.9204 2.4543 1.8407 3.0679 2.7611q1.2272 1.2272 1.534 2.1475c.3068.9204.3068 1.534.0 2.4543s-.6136 2.4543-.6136 3.3747c0 1.2272.9204 2.4543.9204 2.7611s1.2272 3.0679 1.2272 3.0679v.6136c-.3068.9204-.6136 1.534-.6136 2.4543-.3068.9204.3068 2.4543.6136 3.3747.0 1.2272 1.2272 4.9087 1.2272 5.2154.3068.3068.6136 1.534.3068 1.534s-.3068-.3068-.9204-.6136c-.9204-.6136-1.8407-2.1475-2.7611-3.6815-1.2272-1.2272-2.4543-4.2951-3.0679-5.5222-.3068-.9204-1.534-2.7611-2.1475-3.3747-.3068-.6136-1.534.0-2.7611.6136zm0-23.3161v15.6463c-.6136.0-.9204.6136-1.2272 1.2272.0.0-.3068 1.534.3068 2.1475.3068.3068.6136.3068.9204.3068v3.9883c-.3068.3068-.9204.3068-1.2272.3068l-.6136.6136V30.0655h.3068c1.8407-.6136.9204-3.0679-.3068-2.4543V14.726c.6136.3068 1.2272.3068 1.2272.3068s.3068.6136.3068 1.2272c0 .3068.3068.6136.3068.9204zm-6.1358 37.1217c.6136-.3068.3068-.6136.3068-.9204.3068-.3068.6136-.9204.3068-1.2272l-.6136-1.8407v3.9883h0zm4.2951-39.576v12.8852h0c-.9204.0-1.2272.6136-1.2272.6136s-.3068.9204.3068 1.534c.3068.0.6136.3068.9204.3068v11.3513c-.6136.3068-1.2272.3068-2.1475-.9204-1.534-1.8407.0-2.4543.0-3.3747.0-.6136.9204-3.0679.6136-3.6815-.3068-.9204-1.8407.0-2.4543-.9204.0-.3068-.3068-.6136-.3068-.9204v-6.7494h.3068c.6136-.6136 3.3747-1.534 3.3747-1.534l.6136-1.534-2.7611-7.0562s.3068-.9204 1.2272-.6136c.3068.3068.9204.3068 1.534.6136zm-16.5667 9.2037c-.3068 1.8407-.3068 3.6815.0 5.2154.6136 1.2272.9204 2.4543 1.534 3.3747.3068.9204.0 1.534.0 1.534s-1.534 1.534-2.1475 2.4543c-.9204.6136-2.4543 2.7611-3.0679 4.2951-.3068 2.1475.0 3.6815.9204 3.3747 1.2272-.3068 1.534-.9204 1.8407-1.8407.6136-.9204 1.8407-1.8407 2.4543-.9204.3068.6136-.6136 3.6815-.6136 4.6019s-.3068 3.6815.0 4.6019c.6136.6136 1.534 1.8407 1.534 2.1475.3068.3068.6136 1.2272.9204.6136.3068.0.9204-.3068.9204-.3068s.6136-1.2272.9204-2.1475.9204-1.534.9204-2.1475c.3068-.6136.9204-.9204 1.534-1.2272.6136.0 1.2272.9204 1.534 1.534.0.3068.9204 2.1475.9204 2.4543s-.3068.3068-.6136.6136-.3068.6136-.3068.9204h-.6136s.6136.3068 1.2272 1.2272c.6136.3068 1.534.9204 2.1475.3068.3068.0.3068-.3068.3068-.3068v-3.9883c-.3068-.9204-.9204-1.8407-1.2272-2.1475-.3068-1.2272-.6136-2.1475-1.2272-3.0679-.6136-1.2272-.9204-2.1475-.9204-2.1475s.9204-3.3747 1.2272-4.9087.3068-2.1475.3068-3.3747c0-.6136.3068-1.534.0-2.1475s-.3068-1.2272-.3068-1.2272-.6136.3068-.6136 1.2272c-.3068.9204-.6136 3.0679-.9204 3.9883.0.6136-.3068 1.8407-.6136 2.1475s-1.2272.6136-1.8407.3068c-.6136.0-.9204-.3068-.9204-.3068s-.3068-.6136.0-1.2272c0-.6136.0-.9204-.3068-1.2272.0-.6136-.6136-2.1475-1.2272-2.4543-.3068.0-.6136-.9204-.6136-1.2272s-1.2272-2.7611-.9204-3.3747c0-.9204.9204-3.6815 1.534-4.6019s.6136-2.4543.3068-3.3747c-.3068-2.7611-1.8407-2.1475-3.0679-.6136-.6136.9204-.9204 2.7611-.9204 3.3747h0zm12.2716.9204v6.7494c-.3068-.9204-.3068-2.1475-.3068-2.4543.0-.9204-.6136-2.1475-.6136-2.7611.0-.9204.3068-1.2272.9204-1.534z" style="fill:#fff;stroke-width:0"/><path d="m214.7537 58.2903c.3068.0.6136.3068.9204.3068.6136.3068 4.2951 1.534 5.829 1.8407s2.7611.6136 3.3747.3068c.9204.0 2.1475-.3068 1.2272-1.2272-.9204-.3068-1.8407-1.2272-2.7611-1.8407-1.2272-.9204-3.3747-3.6815-4.2951-5.2154-.9204-1.2272-1.8407-2.7611-1.8407-2.7611s.3068-.6136.6136-.9204c.6136.0 1.534-2.4543 1.8407-3.9883.6136-1.2272.9204-2.7611 1.2272-3.3747.0-.9204.0-1.534-.3068-1.8407.0-.6136-.3068-.3068-.9204-.6136-.3068.0-1.534.3068-2.1475.3068-.3068.0-.6136-.3068-.6136-.6136v-.9204c.3068-.3068 1.2272-.6136 2.4543-.9204 1.534-.3068 3.3747.0 4.2951-.9204.9204-1.2272 1.534-2.4543 2.1475-3.3747.3068-.6136.3068-1.2272.3068-1.534s-.3068-.6136-.3068-.6136-.6136.0-.9204.3068c-.3068.6136-2.1475 1.2272-2.4543 1.534-.6136.6136-1.534.9204-2.1475.6136s-.9204-.3068-1.2272-.6136c0-.3068.6136-2.1475.9204-3.0679.3068-1.2272.6136-1.8407.6136-2.7611.0-1.2272-.3068-1.534-.6136-1.8407s-.9204.0-.9204.0-.6136.9204-.9204 1.534-.9204 2.1475-1.2272 3.3747c-.3068.6136-.9204 2.7611-1.2272 3.3747.0.3068-.3068.3068-.9204.3068v10.1241h.6136c.9204.0 1.2272-.3068 1.2272.3068-.3068.6136-.3068 1.2272-.6136 1.8407-.3068.3068-.6136.9204-1.2272 1.2272v11.6581zm-5.2154-5.5222c1.2272.0 1.8407.0 2.1475.3068.6136.3068.9204.3068.9204.9204s.3068 1.2272.6136 2.4543c.3068.9204.9204 1.534 1.534 1.8407V46.6322h-.6136c-.6136-.3068-.9204-.6136-.9204-.9204-.3068-.3068.0-.9204.3068-1.2272.0-.3068.3068-.6136.3068-.6136s.6136-.3068.9204-.6136V33.1333h-.9204c-.6136.3068-1.534.0-2.7611.0-.6136.3068-.9204.3068-1.534.3068v2.4543q.3068.0.6136.3068c.3068.6136.3068.0.6136.6136.0.3068.6136.3068.6136.6136.3068.0.3068.3068.3068.6136s-.6136 1.2272-.9204 1.534-.9204.3068-1.2272.0v13.192h0zm0-23.9297c.3068-.3068.3068-.6136.6136-1.2272.0-.3068.0-.6136-.6136-1.2272v2.4543zm-1.8407-4.2951s-1.534.6136-2.1475 1.8407c-.9204 1.2272-1.8407 3.9883-2.4543 4.6019-.3068.3068-1.2272.3068-1.8407.0-.9204-.3068-2.4543-.6136-2.4543.0s.6136.6136.9204 1.534.9204 3.6815-.6136 5.829c-1.8407 2.1475-2.1475 3.3747-3.6815 3.9883-1.2272.6136-2.4543.3068-3.0679.6136-.6136.0-.9204-.3068-1.2272.3068s-.6136 3.0679.6136 4.2951c.9204.9204 1.534.3068 2.1475.3068.9204.0 1.8407-.3068 1.8407-.3068s.9204.9204 1.534 1.2272c.6136.6136.9204.6136 1.534.3068s1.2272-2.4543 1.534-3.3747c.3068-.6136.6136-2.1475.6136-2.1475s.9204-.9204 2.1475-1.534c.6136-.6136.3068-.3068 1.534-1.2272 1.2272-.6136 1.8407-1.2272 1.8407-1.2272l-.6136 2.7611s-.9204.9204.0 1.8407c.9204.6136 1.8407 1.8407 2.4543 2.4543.9204.9204 1.2272 1.534.3068 2.1475-.6136.3068-2.4543.0-2.7611-.3068-.3068-.6136-.9204-1.534-1.2272-2.4543s-.3068-2.1475-.3068-2.7611c.3068-.6136.0-.9204.0-.9204s-1.2272.6136-1.2272.9204c-.3068.6136-1.534 1.8407-1.8407 3.0679-.6136 1.534-1.2272 3.0679-.9204 3.6815.6136.6136 3.3747 1.8407 4.6019 2.1475s3.3747.9204 4.6019.6136h0V39.2692c-.3068-.3068-1.534-.3068-1.8407-.3068-.3068-.3068.0-.9204.3068-1.2272.3068-.6136.0-.6136.6136-.9204s.9204-.9204.9204-.9204h0v-2.4543c-.9204.3068-1.534.6136-2.1475.9204-.6136 1.2272-2.4543 2.1475-2.4543 2.1475s-.9204.0-.9204-.6136.9204-1.8407 1.8407-2.4543 2.1475-1.534 2.7611-2.7611c.6136-.6136.9204-1.2272.9204-1.8407V26.384c0-.3068-.3068-.6136-.3068-.9204-1.2272-1.2272-1.534-.9204-1.534-.9204z" style="fill:#fff;stroke-width:0"/><path d="m274.8848 84.6743c.3068.3068.6136.6136.6136.9204.6136.6136 2.7611.9204 3.9883.3068 1.2272-.9204 6.1358-4.9087 7.0562-5.5222s1.534-1.534 3.6815-1.534c1.8407.0 3.0679.3068 3.0679 1.534.0.9204-.3068 3.6815-.6136 4.2951s0 .9204-.3068 1.2272c0 .3068-2.4543 1.8407-3.9883 2.4543-1.2272.6136-3.0679 2.4543-3.6815 3.0679s0 1.2272.9204 1.2272c.9204.3068 2.1475.0 3.9883.9204 1.534 1.2272 2.4543 3.3747 2.7611 4.6019.6136 1.2272.3068 2.1475-1.2272 2.1475s-3.0679-.9204-3.9883-1.8407c-.6136-.9204-2.4543-2.4543-3.3747-3.0679-1.2272-.3068-2.7611-.9204-3.3747-.9204-.3068.0-.6136.0-1.534.9204-.9204.6136-2.1475 1.534-3.9883 2.1475V84.6745h0zm0 28.5316v-12.2716c.9204.9204 1.8407 1.8407 2.1475 2.7611.6136 1.2272 1.534 3.3747 1.2272 4.9087s-2.1475 3.9883-2.7611 4.2951c0 .3068-.3068.3068-.6136.3068zm-2.7611-32.2131s1.8407 2.1475 2.7611 3.6815v12.8852c-.6136.3068-1.534.3068-2.4543.6136-2.7611.0-6.1358-1.2272-7.9766-2.4543-2.1475-1.2272-3.6815-2.7611-3.6815-3.3747s1.2272-2.1475 1.534-2.4543c.6136-.3068 1.534-.3068 3.0679-.3068 1.534.3068 2.1475.6136 2.7611.3068.6136.0.9204.3068.9204-.3068.0-.9204-.3068-2.1475-.9204-3.0679s-1.2272-2.7611-1.534-3.9883c0-1.2272.9204-1.8407 2.4543-2.1475s3.0679.6136 3.0679.6136h0zm2.7611 19.9414v12.2716c-.3068-.3068-.6136-.6136-.9204-1.2272-.6136-.6136-2.1475-1.534-1.8407-2.4543v-3.9883c.3068-1.2272.0-1.8407.0-1.8407s-.6136-1.534-.3068-2.1475c0-.9204.0-1.534.3068-1.534.3068-.3068 1.2272-.6136 1.2272-.6136l1.534 1.534z" style="fill:#fff;stroke-width:0"/><path d="m314.154 157.9974s3.6815-1.2272 4.9087-1.2272c1.2272-.3068 3.0679-1.534 3.0679-2.7611s-1.2272-2.4543-2.1475-2.7611c-1.534-.3068-3.0679.3068-4.2951 1.534-1.2272.9204-.9204 1.8407-1.8407 2.4543s-.9204.6136-.9204 1.2272 1.2272 1.534 1.2272 1.534h0zm-25.4637 12.2716v-4.2951c.6136.0 1.2272.3068 1.534-.6136.6136-1.2272.6136-2.1475-.3068-2.7611-.6136-.6136-1.2272-1.534-1.2272-2.1475v-4.6019c.6136-.9204 1.534-2.4543 2.4543-2.4543.9204-.3068 1.8407.6136 1.8407.6136s-.6136 2.1475-.3068 3.3747c0 1.8407.0 3.3747.6136 4.2951.6136.6136 2.7611 2.4543 3.6815 3.3747.9204.6136 2.4543 1.2272 3.9883.9204s1.2272-1.8407.6136-2.1475c-.9204-.6136-1.534-1.2272-2.1475-1.8407l-2.4543-1.2272c-.6136.0-.6136-.9204-.3068-1.2272.3068-.6136 1.534-.9204 2.7611-.9204 1.534.3068 2.7611.9204 3.6815 2.1475 1.2272.9204 2.7611 4.6019 3.3747 5.2154.3068.3068 1.2272.3068 1.534-.3068.0-.9204.0-1.8407-1.2272-3.3747q-.9204-1.2272-1.534-2.4543c-.6136-1.2272-1.2272-.9204-2.1475-2.7611-.6136-1.534-.9204-2.7611-.9204-2.7611s-1.534-.6136-2.4543-.9204-1.2272-1.8407-1.2272-2.7611c-.3068-.6136.9204-1.8407 2.4543-1.8407 1.8407.0 3.3747.3068 4.6019.6136 1.2272.0 2.4543 1.2272 3.0679 2.4543.6136 1.8407 2.1475 5.829 2.7611 7.6698.6136 1.534 1.2272 3.9883 1.2272 6.4426.3068 2.1475.0 2.7611-.6136 3.6815-.3068 1.2272-1.2272 2.1475-1.8407 2.7611-.6136.3068-2.4543-.3068-3.0679-1.2272-.6136-1.2272-2.1475-1.2272-3.0679-1.534-.9204.0-2.1475.6136-3.0679.0-.9204-.3068-1.534-.9204-2.7611-1.2272s-2.7611.0-3.3747.3068c-.3068.3068.0 1.2272.9204 2.1475.9204.6136 1.2272 1.2272 1.2272 2.1475q.3068.9204-.3068 1.534c-.6136.9204-1.2272 1.8407-2.4543 3.0679-.6136.9204-.9204.6136-1.2272.0-.6136-.3068-.9204-2.1475-1.2272-3.0679.0-.9204.0-1.8407-.6136-2.7611-.6136-1.2272-1.534-1.2272-2.4543-1.534h0zm33.1334-10.1241s-1.8407-.3068-2.7611-.3068c-.6136-.3068-2.1475.3068-2.1475 1.2272.0.6136.0 1.8407.3068 2.1475.3068.6136.9204.6136 1.2272.9204.3068.6136.9204.0.9204.0s.9204-.3068 1.2272-.9204c.6136-.9204.6136-1.534.9204-2.1475s.3068-.9204.3068-.9204h0zm4.9087 11.0445s-2.4543-.9204-3.0679-1.2272c-.9204.0-3.0679-1.534-4.6019-1.8407-.9204-.6136-2.4543-.9204-2.4543-.9204s0 1.2272.6136 2.1475c.3068.6136.9204.9204.9204.9204s.6136 3.3747.9204 3.9883c0 .3068 1.2272 2.7611 2.1475 3.0679 1.2272.0 2.4543-.3068 3.3747-1.8407.9204-1.2272 1.534-1.2272 1.8407-2.1475s.3068-2.1475.3068-2.1475zm-38.0421-15.3396v4.6019h-.3068s-.6136.0-1.2272.6136c-.6136.3068-.6136 1.2272-.6136 1.8407.3068.9204.0 1.2272.6136 2.4543.6136.9204.9204.6136 1.2272.6136h.3068v4.2951h-.6136c-1.2272.0-2.4543.0-3.9883-.6136s-.9204-1.534-1.8407-3.6815c-.3068-2.4543-.6136-4.2951-.3068-4.9087.3068-.9204 2.4543-1.534 3.6815-2.1475 1.2272-.9204 1.534-2.1475 2.1475-2.4543.3068.0.6136-.3068.9204-.6136z" style="fill:#fff;stroke-width:0"/></g></svg>